<svg width="135" height="135" viewBox="0 0 135 135" fill="none" xmlns="http://www.w3.org/2000/svg">
<path d="M121.947 70.2102L125.926 70.487L130.98 67.8039L130.87 69.379L126.782 71.5224L126.821 70.9657L130.574 73.6425L130.464 75.2176L125.829 71.8726L121.85 71.5958L121.947 70.2102Z" fill="#151A4D"/>
<path d="M120.44 79.8591C120.589 79.2356 120.84 78.681 121.191 78.1954C121.541 77.7175 121.965 77.3223 122.463 77.0098C122.959 76.705 123.504 76.5014 124.098 76.3991C124.69 76.3044 125.305 76.3333 125.944 76.4858C126.583 76.6383 127.146 76.8904 127.631 77.2422C128.123 77.6036 128.517 78.0313 128.814 78.5253C129.119 79.0211 129.315 79.5642 129.402 80.1545C129.496 80.7467 129.469 81.3545 129.32 81.9781C129.17 82.6094 128.919 83.1639 128.569 83.6419C128.225 84.1293 127.805 84.5254 127.309 84.8302C126.812 85.1427 126.267 85.3463 125.675 85.4409C125.083 85.5356 124.467 85.5067 123.828 85.3542C123.189 85.2017 122.628 84.9457 122.144 84.5862C121.658 84.2344 121.263 83.8105 120.958 83.3147C120.654 82.8189 120.454 82.2749 120.359 81.6827C120.265 81.0906 120.292 80.4827 120.44 79.8591ZM121.688 80.1567C121.581 80.6032 121.564 81.0305 121.638 81.4386C121.71 81.8544 121.855 82.2349 122.074 82.58C122.3 82.9269 122.587 83.2233 122.935 83.4691C123.291 83.7168 123.696 83.8948 124.15 84.0032C124.605 84.1115 125.043 84.1347 125.464 84.0726C125.886 84.0104 126.276 83.8757 126.635 83.6684C126.993 83.4611 127.299 83.1881 127.55 82.8494C127.8 82.5185 127.978 82.1298 128.085 81.6833C128.191 81.2368 128.209 80.8056 128.137 80.3898C128.064 79.9817 127.914 79.6042 127.687 79.2573C127.461 78.9103 127.174 78.6139 126.825 78.3681C126.475 78.13 126.073 77.9568 125.619 77.8484C125.165 77.74 124.724 77.7121 124.297 77.7647C123.875 77.8268 123.485 77.9615 123.126 78.1689C122.775 78.378 122.474 78.6519 122.222 78.9906C121.97 79.3292 121.792 79.7179 121.688 80.1567Z" fill="#151A4D"/>
<path d="M117.575 88.6514C117.836 88.0483 118.195 87.5655 118.653 87.2031C119.108 86.8479 119.616 86.6315 120.175 86.5541C120.731 86.4839 121.293 86.5711 121.859 86.8158L127.167 89.1077L126.612 90.3938L121.359 88.1255C121.003 87.9717 120.654 87.9115 120.312 87.9449C119.966 87.9855 119.659 88.1073 119.391 88.3103C119.119 88.5205 118.906 88.8036 118.753 89.1597C118.596 89.523 118.535 89.872 118.572 90.2067C118.605 90.5487 118.727 90.8556 118.937 91.1274C119.144 91.4065 119.426 91.6229 119.782 91.7766L125.035 94.045L124.485 95.3202L119.177 93.0283C118.61 92.7836 118.162 92.4347 117.831 91.9818C117.501 91.5288 117.311 91.0113 117.26 90.4292C117.207 89.8543 117.312 89.2617 117.575 88.6514Z" fill="#151A4D"/>
<path d="M115.445 93.5995L122.942 98.2924L121.235 101.019C120.92 101.522 120.549 101.906 120.121 102.171C119.701 102.44 119.246 102.571 118.756 102.563C118.268 102.566 117.78 102.414 117.29 102.108C116.774 101.784 116.413 101.376 116.208 100.884C115.998 100.398 115.946 99.8842 116.051 99.3432L111.949 99.1842L112.793 97.8358L117.216 98.0416L116.278 98.533L117.519 96.5506L114.702 94.7869L115.445 93.5995ZM118.576 97.212L117.6 98.7717C117.427 99.0468 117.332 99.3185 117.313 99.587C117.295 99.8554 117.346 100.102 117.466 100.327C117.589 100.563 117.782 100.763 118.043 100.926C118.305 101.09 118.566 101.174 118.825 101.177C119.086 101.192 119.331 101.13 119.557 100.992C119.791 100.858 119.993 100.653 120.166 100.378L121.142 98.8183L118.576 97.212Z" fill="#151A4D"/>
<path d="M109.251 102.686L115.617 108.825L113.607 110.91C112.969 111.571 112.283 112.014 111.549 112.24C110.814 112.478 110.078 112.499 109.342 112.306C108.605 112.112 107.92 111.71 107.288 111.1C106.661 110.496 106.235 109.827 106.009 109.092C105.789 108.363 105.781 107.624 105.985 106.876C106.185 106.133 106.603 105.432 107.24 104.771L109.251 102.686ZM109.176 104.559L108.121 105.653C107.687 106.103 107.405 106.584 107.274 107.096C107.138 107.613 107.153 108.128 107.319 108.64C107.485 109.152 107.801 109.633 108.269 110.084C108.736 110.534 109.228 110.827 109.746 110.963C110.263 111.111 110.775 111.11 111.282 110.961C111.789 110.812 112.259 110.512 112.693 110.062L113.748 108.968L109.176 104.559Z" fill="#151A4D"/>
<path d="M103.07 108.865L108.48 115.863L103.868 119.428L103.106 118.442L106.609 115.733L105.055 113.723L101.74 116.286L100.977 115.3L104.293 112.737L102.724 110.708L99.2211 113.417L98.4587 112.43L103.07 108.865Z" fill="#151A4D"/>
<path d="M97.5033 113.132L101.861 120.828L100.879 121.384L93.1862 117.868L93.6102 117.532L97.0259 123.566L95.8172 124.25L91.4598 116.553L92.4412 115.998L100.127 119.573L99.7293 119.907L96.2843 113.822L97.5033 113.132Z" fill="#151A4D"/>
<path d="M88.362 117.857L91.164 124.919L93.3489 124.052L93.8086 125.211L88.1808 127.444L87.7211 126.285L89.8729 125.431L87.0709 118.369L88.362 117.857Z" fill="#151A4D"/>
<path d="M84.8156 119.367L83.914 128.699L82.2312 129.114L77.0931 121.272L78.5454 120.914L79.6772 122.677L83.1696 121.815L83.3633 119.725L84.8156 119.367ZM83.0763 123.122L80.3907 123.785L83.021 127.904L82.6407 127.998L83.0763 123.122Z" fill="#151A4D"/>
<path d="M75.5315 121.459L76.4504 130.256L75.0572 130.402L74.2677 122.845L70.4657 123.242L70.3362 122.002L75.5315 121.459Z" fill="#151A4D"/>
<path d="M66.7759 122.181L62.8614 130.7L61.1356 130.54L58.8559 121.446L60.3453 121.584L60.8359 123.62L64.4176 123.953L65.2864 122.042L66.7759 122.181ZM63.9005 125.157L61.1462 124.901L62.2787 129.656L61.8886 129.62L63.9005 125.157Z" fill="#151A4D"/>
<path d="M54.399 120.289C54.9369 120.422 55.4117 120.645 55.8235 120.959C56.2333 121.28 56.556 121.657 56.7916 122.09C57.0271 122.523 57.1649 122.989 57.2048 123.488L55.9328 123.688C55.8561 123.106 55.653 122.624 55.3236 122.241C54.9942 121.858 54.5682 121.603 54.0457 121.474C53.7383 121.398 53.458 121.378 53.2047 121.413C52.9496 121.456 52.7387 121.551 52.5722 121.697C52.3979 121.842 52.2824 122.029 52.2255 122.26C52.1478 122.575 52.1746 122.846 52.3058 123.074C52.4371 123.302 52.6623 123.513 52.9815 123.706L54.4701 124.611C55.0663 124.97 55.4832 125.395 55.7208 125.885C55.9566 126.384 56.0062 126.909 55.8697 127.463C55.7503 127.947 55.527 128.34 55.1997 128.642C54.8705 128.953 54.4728 129.16 54.0067 129.265C53.5329 129.368 53.0271 129.354 52.4892 129.221C51.9743 129.094 51.5283 128.886 51.1512 128.598C50.7722 128.317 50.4717 127.982 50.2497 127.593C50.0201 127.202 49.8873 126.782 49.8513 126.333L51.1031 126.116C51.1604 126.611 51.3392 127.026 51.6397 127.361C51.9325 127.694 52.3133 127.918 52.782 128.034C53.0663 128.104 53.3284 128.116 53.5682 128.069C53.8061 128.03 54.0093 127.933 54.1777 127.779C54.3365 127.631 54.4454 127.437 54.5041 127.199C54.5724 126.923 54.5446 126.655 54.421 126.396C54.2973 126.137 54.0682 125.91 53.7336 125.713L52.3517 124.871C51.719 124.495 51.2781 124.068 51.029 123.591C50.778 123.121 50.7236 122.598 50.8657 122.022C50.9833 121.546 51.2143 121.154 51.5589 120.848C51.8957 120.54 52.3097 120.332 52.8008 120.225C53.29 120.126 53.8227 120.147 54.399 120.289Z" fill="#151A4D"/>
<path d="M46.9696 117.882C47.4823 118.092 47.9193 118.382 48.2807 118.753C48.639 119.13 48.903 119.551 49.0725 120.014C49.242 120.477 49.31 120.958 49.2764 121.457L47.9888 121.468C47.9982 120.882 47.8679 120.375 47.5982 119.948C47.3284 119.521 46.9445 119.206 46.4465 119.002C46.1536 118.882 45.8793 118.821 45.6236 118.818C45.3649 118.824 45.1424 118.886 44.9562 119.007C44.7627 119.124 44.6209 119.293 44.5309 119.512C44.4078 119.813 44.3945 120.085 44.4909 120.33C44.5873 120.575 44.7793 120.816 45.0668 121.054L46.4066 122.167C46.9438 122.61 47.2939 123.091 47.4571 123.611C47.6172 124.139 47.5893 124.666 47.3732 125.193C47.1841 125.655 46.9055 126.011 46.5375 126.262C46.1664 126.521 45.7426 126.668 45.2661 126.703C44.7823 126.736 44.2841 126.647 43.7714 126.437C43.2808 126.236 42.8701 125.965 42.5393 125.624C42.2056 125.291 41.9574 124.915 41.7948 124.498C41.625 124.078 41.5551 123.643 41.5854 123.194L42.8555 123.162C42.8395 123.66 42.9556 124.097 43.2038 124.473C43.4446 124.845 43.7884 125.123 44.2351 125.306C44.5061 125.417 44.7636 125.467 45.0077 125.456C45.2487 125.452 45.4639 125.386 45.6531 125.258C45.8319 125.135 45.9679 124.96 46.0609 124.733C46.169 124.469 46.1808 124.2 46.0964 123.926C46.012 123.652 45.8187 123.393 45.5165 123.149L44.273 122.114C43.7023 121.649 43.3287 121.162 43.1522 120.654C42.9727 120.153 42.9955 119.627 43.2206 119.078C43.4067 118.624 43.6926 118.271 44.0783 118.018C44.4567 117.763 44.8966 117.618 45.3981 117.584C45.8965 117.557 46.4204 117.657 46.9696 117.882Z" fill="#151A4D"/>
<path d="M42.4538 115.975L38.2392 123.751L37.0076 123.083L41.2223 115.308L42.4538 115.975Z" fill="#151A4D"/>
<path d="M36.6631 112.332C37.1193 112.646 37.4845 113.023 37.7588 113.462C38.0286 113.907 38.1971 114.374 38.2643 114.862C38.3314 115.351 38.2955 115.835 38.1564 116.316L36.8959 116.053C37.0298 115.482 37.0104 114.96 36.8376 114.485C36.6648 114.01 36.3569 113.62 35.9137 113.315C35.653 113.135 35.398 113.017 35.1486 112.961C34.8947 112.911 34.664 112.925 34.4564 113.003C34.2423 113.076 34.0679 113.211 33.9332 113.406C33.7491 113.674 33.6781 113.937 33.7203 114.197C33.7624 114.456 33.8987 114.733 34.1291 115.026L35.2013 116.399C35.632 116.946 35.8718 117.491 35.9205 118.034C35.9648 118.583 35.8253 119.093 35.502 119.562C35.2191 119.973 34.8711 120.261 34.458 120.429C34.0405 120.602 33.5951 120.656 33.1219 120.589C32.6422 120.518 32.1743 120.326 31.7181 120.011C31.2814 119.71 30.9377 119.358 30.6871 118.955C30.4319 118.558 30.2693 118.138 30.1992 117.696C30.1226 117.249 30.1469 116.809 30.2721 116.377L31.5197 116.616C31.3982 117.1 31.4187 117.551 31.5813 117.971C31.7374 118.386 32.0143 118.73 32.4118 119.004C32.653 119.17 32.894 119.274 33.1348 119.315C33.3712 119.363 33.5954 119.344 33.8074 119.259C34.0085 119.177 34.1786 119.035 34.3178 118.833C34.4795 118.598 34.5482 118.338 34.524 118.052C34.4999 117.766 34.3661 117.472 34.1226 117.17L33.1279 115.894C32.6691 115.318 32.4076 114.763 32.3433 114.228C32.2745 113.7 32.4086 113.192 32.7453 112.703C33.0237 112.299 33.3782 112.015 33.8089 111.85C34.2329 111.681 34.6936 111.633 35.1908 111.707C35.6835 111.787 36.1743 111.995 36.6631 112.332Z" fill="#151A4D"/>
<path d="M31.5295 108.534L26.4372 114.173L28.1817 115.748L27.3462 116.674L22.8528 112.616L23.6883 111.69L25.4064 113.242L30.4987 107.603L31.5295 108.534Z" fill="#151A4D"/>
<path d="M28.619 106.042L19.8567 109.376L18.7377 108.053L23.484 99.9675L24.4497 101.11L23.3725 102.907L25.6947 105.654L27.6533 104.9L28.619 106.042ZM24.4822 106.15L22.6964 104.038L20.1723 108.223L19.9194 107.924L24.4822 106.15Z" fill="#151A4D"/>
<path d="M22.6301 98.7986L15.0653 103.381L14.481 102.416L17.769 94.6229L18.1168 95.0367L12.1868 98.6287L11.4672 97.4407L19.032 92.8585L19.6163 93.8231L16.2693 101.611L15.9236 101.223L21.9044 97.6004L22.6301 98.7986Z" fill="#151A4D"/>
<path d="M17.6505 89.8215L10.6751 92.8335L11.6069 94.9915L10.4625 95.4856L8.06239 89.9271L9.20678 89.433L10.1245 91.5583L17.0998 88.5464L17.6505 89.8215Z" fill="#151A4D"/>
<path d="M16.2547 78.345L4.18514 80.6472L3.92935 79.3061L15.9989 77.004L16.2547 78.345Z" fill="#151A4D"/>
<path d="M12.8771 66.166L8.89183 65.9967L3.91223 68.8152L3.97924 67.2377L8.00799 64.9848L7.98431 65.5423L4.16061 62.9678L4.22762 61.3903L8.95078 64.609L12.9361 64.7783L12.8771 66.166Z" fill="#151A4D"/>
<path d="M14.116 56.4856C13.9839 57.1129 13.7484 57.6739 13.4097 58.1687C13.0726 58.6558 12.6594 59.0622 12.1703 59.3878C11.6827 59.7057 11.1434 59.9238 10.5524 60.0419C9.96297 60.1524 9.34686 60.1399 8.70406 60.0045C8.06127 59.8691 7.49246 59.6321 6.99764 59.2933C6.49671 58.9452 6.09116 58.5281 5.781 58.0422C5.4631 57.5547 5.25281 57.0171 5.15013 56.4293C5.03971 55.8399 5.05056 55.2315 5.18267 54.6042C5.31641 53.9691 5.55185 53.4081 5.88898 52.921C6.22 52.4245 6.62927 52.0174 7.1168 51.6995C7.60596 51.3738 8.14525 51.1558 8.73467 51.0454C9.32408 50.9349 9.94019 50.9474 10.583 51.0828C11.2258 51.2182 11.7938 51.4591 12.287 51.8056C12.7818 52.1444 13.1881 52.5575 13.506 53.045C13.824 53.5326 14.0381 54.071 14.1485 54.6605C14.259 55.2499 14.2481 55.8582 14.116 56.4856ZM12.8614 56.2213C12.956 55.7721 12.9611 55.3446 12.8768 54.9386C12.794 54.5248 12.6388 54.1484 12.4109 53.8092C12.1754 53.4685 11.8803 53.1798 11.5257 52.9434C11.1633 52.7053 10.7537 52.5382 10.2967 52.442C9.83982 52.3457 9.40143 52.3343 8.98158 52.4076C8.56173 52.481 8.17531 52.626 7.8223 52.8429C7.46929 53.0597 7.17151 53.3407 6.92895 53.686C6.68803 54.0234 6.52027 54.4168 6.42567 54.866C6.33107 55.3151 6.32513 55.7466 6.40784 56.1603C6.49219 56.5663 6.65215 56.9397 6.88773 57.2805C7.1233 57.6213 7.4184 57.9099 7.773 58.1463C8.12924 58.375 8.53582 58.5375 8.99275 58.6337C9.44968 58.7299 9.89112 58.7461 10.3171 58.6821C10.7369 58.6088 11.1234 58.4637 11.4764 58.2469C11.8216 58.0284 12.1155 57.7466 12.3581 57.4013C12.6007 57.0561 12.7684 56.6628 12.8614 56.2213Z" fill="#151A4D"/>
<path d="M16.7219 47.6487C16.4774 48.2584 16.1308 48.7504 15.6822 49.1248C15.2366 49.4918 14.7352 49.7213 14.1781 49.8134C13.624 49.8981 13.0604 49.8255 12.4874 49.5957L7.1215 47.4435L7.643 46.1433L12.9539 48.2735C13.3138 48.4178 13.6643 48.4689 14.0053 48.4266C14.3492 48.3769 14.6528 48.2472 14.9161 48.0372C15.1823 47.82 15.3876 47.5314 15.532 47.1714C15.6793 46.8042 15.7303 46.4537 15.6851 46.12C15.6428 45.779 15.513 45.4754 15.2957 45.2092C15.0814 44.9356 14.7943 44.7267 14.4344 44.5823L9.12351 42.4521L9.64059 41.163L15.0065 43.3153C15.5795 43.5451 16.037 43.8821 16.379 44.3262C16.721 44.7704 16.9248 45.2828 16.9904 45.8633C17.0589 46.4366 16.9694 47.0317 16.7219 47.6487Z" fill="#151A4D"/>
<path d="M18.6953 42.647L11.0803 38.1485L12.7167 35.3786C13.0186 34.8675 13.3797 34.4741 13.7999 34.1984C14.2134 33.9187 14.6651 33.7765 15.155 33.7718C15.6422 33.7562 16.1345 33.8954 16.632 34.1892C17.1567 34.4992 17.5279 34.8977 17.7457 35.3849C17.9675 35.8652 18.0328 36.3772 17.9415 36.9208L22.0464 36.9741L21.2373 38.3438L16.8104 38.2519L17.7353 37.7366L16.5458 39.7502L19.4078 41.4409L18.6953 42.647ZM15.4725 39.1162L16.4085 37.5319C16.5735 37.2525 16.6619 36.9784 16.6736 36.7095C16.6854 36.4407 16.628 36.1954 16.5016 35.9737C16.3725 35.7411 16.175 35.5463 15.9092 35.3893C15.6435 35.2323 15.381 35.1554 15.1218 35.1585C14.8597 35.1508 14.6172 35.219 14.3943 35.363C14.1645 35.503 13.9671 35.7127 13.802 35.9921L12.8661 37.5764L15.4725 39.1162Z" fill="#151A4D"/>
<path d="M24.6131 33.4042L18.0925 27.4289L20.0496 25.2933C20.6698 24.6164 21.3443 24.1556 22.0731 23.911C22.8013 23.6551 23.5362 23.6147 24.2776 23.7896C25.0191 23.9645 25.7137 24.3487 26.3613 24.9422C27.0032 25.5304 27.4464 26.1889 27.6911 26.9176C27.9299 27.641 27.9565 28.3793 27.7709 29.1324C27.5907 29.8797 27.1904 30.5918 26.5702 31.2686L24.6131 33.4042ZM24.6405 31.5293L25.6672 30.409C26.0896 29.948 26.3596 29.4601 26.4772 28.9452C26.6001 28.4245 26.5721 27.9103 26.3931 27.4028C26.2141 26.8952 25.8854 26.4222 25.4069 25.9838C24.9284 25.5453 24.4288 25.2646 23.9081 25.1417C23.3869 25.0076 22.875 25.0215 22.3723 25.1835C21.8696 25.3455 21.407 25.657 20.9846 26.1179L19.958 27.2382L24.6405 31.5293Z" fill="#151A4D"/>
<path d="M30.4913 27.1679L24.8804 20.3312L29.3862 16.6333L30.177 17.5969L26.7541 20.4061L28.3658 22.3699L31.6052 19.7113L32.396 20.6749L29.1566 23.3335L30.7834 25.3157L34.2063 22.5065L34.9971 23.47L30.4913 27.1679Z" fill="#151A4D"/>
<path d="M36.1504 22.5669L31.5961 14.9853L32.5629 14.4046L40.344 17.7212L39.9289 18.0675L36.3587 12.1243L37.5494 11.4091L42.1038 18.9907L41.137 19.5714L33.3619 16.1958L33.7506 15.8515L37.3513 21.8456L36.1504 22.5669Z" fill="#151A4D"/>
<path d="M45.1537 17.605L42.1678 10.6184L40.0063 11.5422L39.5165 10.396L45.0839 8.01659L45.5737 9.16282L43.445 10.0726L46.4309 17.0591L45.1537 17.605Z" fill="#151A4D"/>
<path d="M48.4101 16.0635L49.0634 6.71089L50.7346 6.2512L56.0792 13.9539L54.637 14.3506L53.4587 12.6185L49.9904 13.5726L49.8524 15.6667L48.4101 16.0635ZM50.049 12.2636L52.7161 11.53L49.9772 7.48148L50.3549 7.37758L50.049 12.2636Z" fill="#151A4D"/>
<path d="M57.63 13.6855L56.4747 4.9169L57.8636 4.73391L58.8561 12.2667L62.646 11.7673L62.8088 13.0032L57.63 13.6855Z" fill="#151A4D"/>
<path d="M66.4298 12.6854L70.1131 4.06389L71.8426 4.17749L74.3667 13.2067L72.8741 13.1087L72.3288 11.086L68.7394 10.8503L67.9224 12.7834L66.4298 12.6854ZM69.2239 9.63287L71.984 9.81416L70.7238 5.09147L71.1147 5.11714L69.2239 9.63287Z" fill="#151A4D"/>
<path d="M78.7022 14.1777C78.1609 14.0594 77.6803 13.8491 77.2604 13.5466C76.8421 13.2365 76.5094 12.8681 76.2624 12.4414C76.0154 12.0148 75.8653 11.5526 75.8121 11.0549L77.0784 10.8213C77.1705 11.4004 77.3863 11.8769 77.7259 12.2509C78.0654 12.6249 78.498 12.8693 79.0238 12.9842C79.3331 13.0518 79.6138 13.0646 79.8661 13.0225C80.12 12.9727 80.3283 12.8724 80.4908 12.7216C80.6611 12.5725 80.7717 12.382 80.8224 12.15C80.8916 11.833 80.8577 11.5623 80.7204 11.3379C80.5831 11.1134 80.3523 10.9091 80.0281 10.7248L78.5159 9.85954C77.9104 9.51655 77.4823 9.10298 77.2317 8.61883C76.9827 8.12694 76.9191 7.60266 77.0408 7.04596C77.1472 6.55885 77.36 6.15979 77.6792 5.84879C78 5.53005 78.392 5.31193 78.8551 5.19443C79.326 5.07862 79.8321 5.07987 80.3733 5.19817C80.8913 5.31141 81.3427 5.50728 81.7274 5.7858C82.1138 6.05658 82.4231 6.38344 82.6553 6.76636C82.8953 7.15096 83.0393 7.56724 83.0872 8.01518L81.8416 8.26545C81.7712 7.77209 81.5813 7.36198 81.272 7.03513C80.9704 6.70997 80.5838 6.49584 80.1122 6.39275C79.8261 6.33022 79.5638 6.32555 79.3254 6.37874C79.0886 6.4242 78.8881 6.5262 78.7238 6.68472C78.5689 6.8372 78.4653 7.03329 78.4129 7.27298C78.3521 7.55132 78.3869 7.81818 78.5174 8.07354C78.6479 8.32891 78.8831 8.55043 79.2228 8.73811L80.6266 9.54317C81.2691 9.90235 81.7212 10.3171 81.983 10.7875C82.2464 11.2501 82.3147 11.7714 82.188 12.3513C82.0832 12.8307 81.8627 13.228 81.5264 13.5434C81.1979 13.8605 80.7896 14.0791 80.3015 14.1992C79.8152 14.3117 79.2821 14.3045 78.7022 14.1777Z" fill="#151A4D"/>
<path d="M86.4822 16.4373C85.9643 16.2407 85.5198 15.962 85.1489 15.6011C84.7807 15.2328 84.5058 14.8195 84.3242 14.3612C84.1426 13.9029 84.0621 13.4237 84.0826 12.9236L85.3694 12.8786C85.3754 13.465 85.5189 13.9681 85.7998 14.3879C86.0806 14.8077 86.4727 15.1131 86.9758 15.304C87.2718 15.4164 87.5476 15.4703 87.8033 15.4657C88.0618 15.4538 88.2825 15.3852 88.4655 15.2599C88.6559 15.1374 88.7932 14.9652 88.8775 14.7432C88.9926 14.4399 88.9988 14.1671 88.896 13.9249C88.7932 13.6827 88.595 13.4467 88.3013 13.2167L86.9327 12.1386C86.3842 11.7104 86.0215 11.2384 85.8448 10.7226C85.6709 10.1995 85.685 9.67154 85.8872 9.13878C86.0641 8.67261 86.3332 8.30917 86.6946 8.04845C87.0588 7.78033 87.4786 7.62219 87.954 7.57405C88.4368 7.52871 88.9371 7.60433 89.4551 7.8009C89.9509 7.98905 90.3685 8.24914 90.7081 8.58118C91.0505 8.90582 91.3084 9.27458 91.4818 9.68748C91.6627 10.1032 91.7439 10.5361 91.7254 10.9862L90.4566 11.0507C90.4595 10.5523 90.332 10.1188 90.0741 9.75001C89.8235 9.38405 89.4726 9.11542 89.0212 8.94412C88.7475 8.84022 88.4887 8.79705 88.245 8.81461C88.0041 8.82478 87.7908 8.89619 87.605 9.02885C87.4294 9.15691 87.2981 9.33564 87.2111 9.56502C87.11 9.8314 87.1052 10.1005 87.1968 10.3723C87.2883 10.644 87.4883 10.8977 87.7968 11.1333L89.067 12.1359C89.6497 12.5857 90.036 13.0624 90.2257 13.5661C90.4183 14.0625 90.4093 14.5881 90.1987 15.1431C90.0246 15.6018 89.748 15.9625 89.369 16.225C88.9975 16.4903 88.5615 16.6465 88.0611 16.6936C87.5635 16.7334 87.0372 16.6479 86.4822 16.4373Z" fill="#151A4D"/>
<path d="M91.0159 18.1965L95.0278 10.3144L96.2762 10.9498L92.2643 18.8319L91.0159 18.1965Z" fill="#151A4D"/>
<path d="M96.8207 21.6168C96.3566 21.3143 95.9818 20.9472 95.6964 20.5155C95.4153 20.0771 95.2349 19.6147 95.1552 19.1282C95.0756 18.6417 95.0991 18.1563 95.2258 17.6721L96.4926 17.9027C96.3734 18.4768 96.4062 18.9989 96.5911 19.469C96.776 19.9391 97.0938 20.321 97.5447 20.6149C97.8099 20.7878 98.0679 20.8993 98.3186 20.9494C98.5737 20.9928 98.804 20.9729 99.0095 20.8895C99.2216 20.8105 99.3925 20.6715 99.5222 20.4726C99.6994 20.2008 99.7636 19.9356 99.7148 19.6771C99.666 19.4186 99.5227 19.1456 99.2849 18.8583L98.1778 17.5132C97.7332 16.9777 97.4796 16.4392 97.4169 15.8977C97.3585 15.3495 97.4849 14.8367 97.7961 14.3593C98.0684 13.9416 98.4089 13.6439 98.8175 13.4663C99.2305 13.282 99.6744 13.2171 100.149 13.2714C100.63 13.3301 101.103 13.5107 101.567 13.8132C102.012 14.1028 102.364 14.446 102.625 14.8428C102.89 15.233 103.064 15.6483 103.145 16.0887C103.233 16.5334 103.22 16.9737 103.106 17.4095L101.853 17.2019C101.962 16.7156 101.93 16.2648 101.756 15.8495C101.59 15.4386 101.304 15.1013 100.9 14.8376C100.654 14.6777 100.411 14.5803 100.169 14.5455C99.9313 14.5041 99.7077 14.5283 99.4979 14.6183C99.299 14.706 99.1326 14.8526 98.9986 15.0581C98.843 15.2968 98.781 15.5587 98.8125 15.8437C98.8439 16.1288 98.9852 16.4193 99.2364 16.7152L100.263 17.9657C100.737 18.5294 101.013 19.0775 101.09 19.6102C101.173 20.1362 101.052 20.6478 100.728 21.1451C100.46 21.5561 100.113 21.8495 99.6864 22.0251C99.2668 22.2051 98.8075 22.2647 98.3086 22.204C97.814 22.1367 97.318 21.9409 96.8207 21.6168Z" fill="#151A4D"/>
<path d="M102.253 25.4082L107.2 19.6417L105.416 18.1112L106.228 17.1651L110.823 21.1074L110.012 22.0535L108.255 20.5461L103.307 26.3126L102.253 25.4082Z" fill="#151A4D"/>
<path d="M105.162 27.7451L113.836 24.1886L114.989 25.4834L110.45 33.6867L109.455 32.5693L110.486 30.7458L108.095 28.0588L106.156 28.8625L105.162 27.7451ZM109.295 27.5316L111.133 29.5978L113.55 25.3492L113.811 25.6418L109.295 27.5316Z" fill="#151A4D"/>
<path d="M111.342 34.8021L118.787 30.0269L119.396 30.9762L116.309 38.8515L115.951 38.4467L121.786 34.7034L122.536 35.8726L115.092 40.6478L114.483 39.6985L117.629 31.8275L117.984 32.2059L112.098 35.9812L111.342 34.8021Z" fill="#151A4D"/>
<path d="M116.572 43.6506L123.466 40.4578L122.478 38.3248L123.609 37.801L126.154 43.295L125.022 43.8188L124.05 41.7182L117.155 44.911L116.572 43.6506Z" fill="#151A4D"/>
<path d="M118.309 55.1438L130.313 52.52L130.605 53.8537L118.601 56.4775L118.309 55.1438Z" fill="#151A4D"/>
</svg>
