<svg width="566" height="615" viewBox="0 0 566 615" fill="none" xmlns="http://www.w3.org/2000/svg">
<path d="M357.277 67.8611C404.159 82.4418 438.327 122.412 455.632 175.338C472.937 228.262 473.361 294.1 452.773 360.298C432.184 426.496 394.494 480.48 350.225 514.254C305.955 548.029 255.144 561.569 208.263 546.988C161.382 532.407 127.213 492.438 109.908 439.513C92.6027 386.588 92.1788 320.75 112.767 254.552C133.355 188.354 171.046 134.37 215.315 100.596C259.585 66.8212 310.396 53.2805 357.277 67.8611Z" stroke="#151A4D"/>
<path d="M411.943 92.3523C454.031 117.631 477.75 164.562 482.016 220.081C486.282 275.599 471.086 339.661 435.392 399.091C399.698 458.522 350.285 502.032 299.271 524.349C248.256 546.667 195.684 547.776 153.596 522.497C111.507 497.218 87.7876 450.289 83.5218 394.769C79.2561 339.251 94.4517 275.189 130.146 215.759C165.84 156.328 215.253 112.818 266.267 90.5008C317.282 68.1834 369.854 67.0737 411.943 92.3523Z" stroke="#151A4D"/>
<g filter="url(#filter0_d_7557_417)">
<rect x="294" y="32.2485" width="62" height="62" rx="31" fill="#F5F6FC" shape-rendering="crispEdges"/>
<path d="M335.352 52.6485C334.552 53.5485 334.552 53.6485 335.402 54.3985C336.302 55.1985 336.402 55.1985 337.152 54.3485C337.952 53.4485 337.952 53.3485 337.102 52.5985C336.202 51.7985 336.102 51.7985 335.352 52.6485Z" fill="#2A7AE2"/>
<path d="M316.95 54.1985C315.8 55.3985 315.5 56.0985 315.5 57.9485C315.5 59.9985 315.7 60.3485 317.7 61.9985L319.9 63.7485L320.1 68.1985C320.25 71.4485 320.55 72.9985 321.25 74.0485L322.25 75.4985L322.6 71.9985C323.25 66.1985 324.8 63.1985 326.75 63.9485C328.15 64.4485 329.5 68.2485 329.5 71.5985C329.5 73.8985 329.7 74.7485 330.15 74.7485C331.35 74.7485 332.15 72.1485 332.4 67.5985C332.6 63.3985 332.7 63.1985 334.05 62.4985C334.8 62.0985 335.8 61.2485 336.2 60.6485C337.05 59.4485 337.3 55.9985 336.55 56.4485C336.3 56.5985 335.75 56.1985 335.3 55.5485C334.9 54.8485 334.05 54.1985 333.5 53.9985C332.95 53.7985 332.6 53.4485 332.75 53.1985C333.25 52.4485 330.55 52.6985 328.85 53.5985L327.25 54.3985L328.75 55.0485C330.2 55.6985 330.2 55.6985 329 55.7485C328.3 55.7485 326.4 55.0985 324.75 54.2485C320.85 52.3485 318.85 52.2985 316.95 54.1985Z" fill="#2A7AE2"/>
<path d="M312 65.7485C312 65.9985 312.35 66.2485 312.8 66.2485C313.2 66.2485 313.4 65.9985 313.25 65.7485C313.1 65.4485 312.75 65.2485 312.45 65.2485C312.2 65.2485 312 65.4485 312 65.7485Z" fill="#2A7AE2"/>
<path d="M314.049 70.4484C313.649 70.9484 313.649 71.2484 314.199 71.6984C314.699 72.1484 314.999 72.0984 315.499 71.5484C316.099 70.7984 315.799 69.7484 315.049 69.7484C314.799 69.7484 314.349 70.0484 314.049 70.4484Z" fill="#2A7AE2"/>
</g>
<g filter="url(#filter1_d_7557_417)">
<rect x="228" y="511.249" width="62" height="62" rx="31" fill="#F5F6FC" shape-rendering="crispEdges"/>
<path d="M252 528.699C252 528.999 252.7 529.599 253.5 530.099L255 530.949V536.049C255 539.949 254.85 541.249 254.25 541.749C253.65 542.249 253.5 543.749 253.5 549.299V556.249H255.5H257.5V549.299C257.5 543.749 257.35 542.249 256.75 541.749C256.15 541.249 256 539.899 256 535.749V530.349L254.3 529.299C252.45 528.149 252 528.049 252 528.699Z" fill="#2A7AE2"/>
<path d="M260.1 529.399C258.55 531.049 258.7 532.899 260.5 534.399C261.85 535.549 262 535.999 262 538.399C262 540.199 261.75 541.349 261.25 541.749C260.65 542.249 260.5 543.749 260.5 549.299V556.249H262.5H264.5V549.299C264.5 543.749 264.35 542.249 263.75 541.749C263.25 541.349 263 540.199 263 538.399C263 535.999 263.2 535.499 264.5 534.249C266.3 532.549 266.4 531.099 264.75 529.499C263.25 527.949 261.5 527.899 260.1 529.399Z" fill="#2A7AE2"/>
</g>
<defs>
<filter id="filter0_d_7557_417" x="270" y="8.24854" width="126" height="126" filterUnits="userSpaceOnUse" color-interpolation-filters="sRGB">
<feFlood flood-opacity="0" result="BackgroundImageFix"/>
<feColorMatrix in="SourceAlpha" type="matrix" values="0 0 0 0 0 0 0 0 0 0 0 0 0 0 0 0 0 0 127 0" result="hardAlpha"/>
<feOffset dx="8" dy="8"/>
<feGaussianBlur stdDeviation="16"/>
<feComposite in2="hardAlpha" operator="out"/>
<feColorMatrix type="matrix" values="0 0 0 0 0.0823529 0 0 0 0 0.101961 0 0 0 0 0.301961 0 0 0 0.3 0"/>
<feBlend mode="normal" in2="BackgroundImageFix" result="effect1_dropShadow_7557_417"/>
<feBlend mode="normal" in="SourceGraphic" in2="effect1_dropShadow_7557_417" result="shape"/>
</filter>
<filter id="filter1_d_7557_417" x="204" y="487.249" width="126" height="126" filterUnits="userSpaceOnUse" color-interpolation-filters="sRGB">
<feFlood flood-opacity="0" result="BackgroundImageFix"/>
<feColorMatrix in="SourceAlpha" type="matrix" values="0 0 0 0 0 0 0 0 0 0 0 0 0 0 0 0 0 0 127 0" result="hardAlpha"/>
<feOffset dx="8" dy="8"/>
<feGaussianBlur stdDeviation="16"/>
<feComposite in2="hardAlpha" operator="out"/>
<feColorMatrix type="matrix" values="0 0 0 0 0.0823529 0 0 0 0 0.101961 0 0 0 0 0.301961 0 0 0 0.3 0"/>
<feBlend mode="normal" in2="BackgroundImageFix" result="effect1_dropShadow_7557_417"/>
<feBlend mode="normal" in="SourceGraphic" in2="effect1_dropShadow_7557_417" result="shape"/>
</filter>
</defs>
</svg>
