<svg width="100" height="76" viewBox="0 0 100 76" fill="none" xmlns="http://www.w3.org/2000/svg">
<path fill-rule="evenodd" clip-rule="evenodd" d="M22.4312 45.4375C18.7035 44.5144 15.3923 42.3695 13.0259 39.3449C10.6594 36.3203 9.37413 32.5903 9.375 28.75V27.1875C9.375 22.6291 11.1858 18.2574 14.4091 15.0341C17.6324 11.8108 22.0041 10 26.5625 10H28.125C32.5837 9.99598 36.8691 11.7267 40.0745 14.826C43.2799 17.9252 45.1539 22.1499 45.3 26.6063V26.625H45.3125V28.75C45.3125 29.5708 45.2562 30.375 45.1437 31.1625C45.0187 32.7958 44.8312 34.4 44.5812 35.975C43.9221 40.1011 42.7484 44.1283 41.0875 47.9625C38.1096 54.8311 33.4652 60.8482 27.575 65.4688L26.9625 65.9437C26.7036 66.1407 26.3878 66.2482 26.0625 66.25C25.7936 66.249 25.5294 66.1786 25.2957 66.0456C25.0619 65.9126 24.8664 65.7215 24.7282 65.4909C24.5899 65.2602 24.5135 64.9977 24.5064 64.7289C24.4992 64.4601 24.5616 64.1939 24.6875 63.9563C26.1707 61.1353 27.5263 58.2491 28.75 55.3062C29.9812 52.3437 31.225 48.975 32.2313 45.4437C30.8879 45.7761 29.5088 45.9419 28.125 45.9375H26.5625C25.1333 45.9333 23.7563 45.7667 22.4312 45.4375ZM19 54.2188C13.511 52.5885 8.69569 49.2282 5.27182 44.6386C1.84794 40.0491 -0.00119389 34.476 5.78323e-07 28.75V27.1875C5.78323e-07 20.1427 2.79854 13.3864 7.77998 8.40498C12.7614 3.42354 19.5177 0.625001 26.5625 0.625001H28.125C37.2 0.625001 45.2062 5.175 50 12.1125C52.4427 8.56873 55.7099 5.67161 59.5205 3.6705C63.3311 1.66939 67.5709 0.624242 71.875 0.625001H73.4375C80.3902 0.623577 87.0662 3.34822 92.0325 8.21399C96.9988 13.0798 99.8593 19.6988 100 26.65V28.75C100 29.8958 99.9271 31.0271 99.7812 32.1438C98.4875 48.5187 91.2938 63.1813 77.9813 73.3875C76.0846 74.8384 73.763 75.6247 71.375 75.625C62.9938 75.625 57.9625 66.7188 61.7 59.6C62.3937 58.2812 63.325 56.425 64.3125 54.225C59.4466 52.776 55.0978 49.9629 51.7812 46.1188C48.3962 56.9723 41.7163 66.5028 32.6688 73.3875C30.7721 74.8384 28.4505 75.6247 26.0625 75.625C17.6813 75.625 12.65 66.7188 16.3875 59.6C17.0812 58.2812 18.0125 56.425 19 54.225M67.75 45.4375C69.075 45.7667 70.4521 45.9333 71.8813 45.9375H73.4438C74.8272 45.9358 76.2056 45.7701 77.55 45.4437C76.4109 49.4248 74.9907 53.32 73.3 57.1C72.2797 59.4219 71.1811 61.7086 70.0062 63.9563C69.8804 64.1939 69.818 64.4601 69.8251 64.7289C69.8322 64.9977 69.9086 65.2602 70.0469 65.4909C70.1852 65.7215 70.3807 65.9126 70.6144 66.0456C70.8482 66.1786 71.1123 66.249 71.3812 66.25C71.7065 66.2482 72.0224 66.1407 72.2812 65.9437L72.8938 65.4688C74.7771 63.9771 76.5104 62.3771 78.0938 60.6688C81.7829 56.7034 84.7259 52.1047 86.7812 47.0938C88.2446 43.5201 89.2891 39.789 89.8938 35.975C90.1524 34.3797 90.3421 32.7741 90.4625 31.1625C90.575 30.3708 90.6313 29.5667 90.6313 28.75V26.6312H90.625V26.6063C90.4789 22.1478 88.6031 17.9212 85.395 14.8216C82.1869 11.722 77.8984 9.99273 73.4375 10H71.8687C67.3103 10 62.9386 11.8108 59.7154 15.0341C56.4921 18.2574 54.6812 22.6291 54.6812 27.1875V28.75C54.6812 36.8125 60.2438 43.5875 67.7375 45.4375" fill="#2A7AE2" fill-opacity="0.16"/>
</svg>
