<svg width="143" height="33" viewBox="0 0 143 33" fill="none" xmlns="http://www.w3.org/2000/svg">
<path d="M8.384 26.176L7.616 26.08C7.36 25.9093 7.15733 25.6853 7.008 25.408C6.88 25.152 6.76267 24.896 6.656 24.64H6.496C6.13333 24.64 5.89867 24.704 5.792 24.832C5.70667 24.9813 5.62133 25.12 5.536 25.248C5.45067 25.3973 5.23733 25.472 4.896 25.472C4.66133 25.472 4.416 25.44 4.16 25.376C3.904 25.3333 3.648 25.312 3.392 25.312C3.24267 25.312 3.104 25.3333 2.976 25.376C2.86933 25.4187 2.74133 25.44 2.592 25.44C2.272 25.44 1.93067 25.3867 1.568 25.28C1.20533 25.1733 0.885333 25.0027 0.608 24.768C0.352 24.5333 0.224 24.2347 0.224 23.872C0.224 23.36 0.426667 22.9547 0.832 22.656C1.25867 22.336 1.696 22.144 2.144 22.08L2.08 22.144C1.84533 22.2933 1.568 22.4853 1.248 22.72C0.928 22.9333 0.768 23.2107 0.768 23.552C0.768 23.8507 0.949333 24.0853 1.312 24.256C1.696 24.4267 2.016 24.512 2.272 24.512L2.432 24.448C2.688 24.512 2.98667 24.544 3.328 24.544C3.84 24.544 4.37333 24.5013 4.928 24.416C5.504 24.3307 5.984 24.2453 6.368 24.16V23.936C6.176 23.6587 6.08 23.392 6.08 23.136L6.432 22.272L6.208 21.952L6.496 21.408V21.312L6.24 21.28L6.08 21.408V21.376L6.208 21.184C6.144 20.9067 6.18667 20.5973 6.336 20.256C6.50667 19.9147 6.67733 19.5733 6.848 19.232C7.04 18.8693 7.136 18.5493 7.136 18.272C7.30667 18.1227 7.49867 17.8347 7.712 17.408C7.94667 16.96 8.17067 16.5013 8.384 16.032C8.59733 15.5627 8.768 15.2107 8.896 14.976C9.30133 14.1653 9.76 13.3867 10.272 12.64C10.784 11.872 11.328 11.1253 11.904 10.4C11.6907 10.464 11.4773 10.528 11.264 10.592C11.072 10.656 10.8587 10.688 10.624 10.688C10.4747 10.7947 10.1653 10.912 9.696 11.04C9.22667 11.168 8.72533 11.3067 8.192 11.456C7.68 11.584 7.232 11.7227 6.848 11.872C6.464 12 6.272 12.128 6.272 12.256L6.368 12.416L6.88 12.064L7.008 12.128L7.2 11.968L7.232 12.096C7.232 12.352 7.168 12.576 7.04 12.768L6.912 12.48L6.624 12.672L6.688 12.896L6.496 12.96C6.60267 13.024 6.688 13.1093 6.752 13.216C6.83733 13.3227 6.912 13.4293 6.976 13.536C6.48533 13.5573 6.016 13.728 5.568 14.048C5.14133 14.3467 4.68267 14.528 4.192 14.592C4.08533 14.7413 3.94667 14.8373 3.776 14.88C3.60533 14.9227 3.43467 14.944 3.264 14.944C3.15733 14.944 2.99733 14.848 2.784 14.656C2.57067 14.4427 2.37867 14.2187 2.208 13.984C2.05867 13.728 1.984 13.5467 1.984 13.44C1.984 13.2053 2.12267 12.96 2.4 12.704C2.67733 12.448 2.89067 12.256 3.04 12.128L2.688 12.768C2.944 12.5973 3.30667 12.416 3.776 12.224C4.24533 12.032 4.72533 11.8507 5.216 11.68C5.728 11.488 6.18667 11.3067 6.592 11.136C6.99733 10.944 7.27467 10.784 7.424 10.656C8.256 10.4213 9.09867 10.208 9.952 10.016C10.8267 9.80267 11.6907 9.65333 12.544 9.568C12.6507 9.44 12.8213 9.248 13.056 8.992C13.312 8.71467 13.568 8.46933 13.824 8.256C14.08 8.02133 14.2933 7.904 14.464 7.904C14.848 7.904 15.1893 7.92533 15.488 7.968C15.7867 7.98933 16.0107 8.20267 16.16 8.608C16.16 8.84267 16.064 9.056 15.872 9.248C15.7013 9.41867 15.5307 9.55733 15.36 9.664L15.68 9.728C15.8507 9.664 15.9893 9.55733 16.096 9.408L16.288 9.376H16.352C16.48 9.376 16.5867 9.408 16.672 9.472C16.7787 9.536 16.8747 9.61067 16.96 9.696L17.312 9.536C17.8453 9.536 18.496 9.67467 19.264 9.952C20.032 10.208 20.7893 10.56 21.536 11.008C22.304 11.456 22.9333 11.968 23.424 12.544C23.936 13.0987 24.192 13.6853 24.192 14.304C24.192 14.5813 24.1707 14.8587 24.128 15.136C24.0853 15.392 24.0427 15.648 24 15.904L23.808 15.84L23.648 15.968V16.032L23.904 16.32C23.7547 16.7893 23.52 17.2373 23.2 17.664C22.9013 18.0693 22.5707 18.432 22.208 18.752C21.8667 18.8373 21.5253 19.0613 21.184 19.424C20.8427 19.7867 20.4907 20.0533 20.128 20.224C19.8933 20.5013 19.648 20.6933 19.392 20.8C19.136 20.9067 18.8907 21.1413 18.656 21.504L18.368 21.216L18.304 21.312L18.336 21.504C18.336 21.6747 18.176 21.76 17.856 21.76C17.7707 21.76 17.6853 21.76 17.6 21.76C17.536 21.7387 17.4827 21.728 17.44 21.728L17.28 21.888L17.312 22.144C17.2907 22.1653 17.184 22.24 16.992 22.368C16.8213 22.496 16.736 22.5067 16.736 22.4H16.672C16.3093 22.6133 15.9787 22.816 15.68 23.008L15.456 22.848L15.296 23.136C15.2747 23.0933 15.232 23.0293 15.168 22.944C15.104 22.8373 15.0293 22.7733 14.944 22.752L14.592 23.136H14.56L14.176 22.944L13.824 23.2L13.664 23.072L13.12 23.328L13.152 23.36H13.376L13.568 23.552V23.584H13.472L12.96 23.456L12.608 23.584L12.416 23.552C12.6293 23.3813 12.8747 23.232 13.152 23.104L12.96 23.008L12.544 23.328L12.256 23.2V23.328C12.064 23.3707 11.9253 23.456 11.84 23.584V23.872L11.712 23.904L11.36 23.744C11.2533 23.7867 11.1467 23.8293 11.04 23.872C10.9547 23.9147 10.8693 23.968 10.784 24.032C10.3573 24.0747 9.94133 24.1813 9.536 24.352C9.13067 24.544 8.704 24.64 8.256 24.64L8 24.512L7.968 25.312L8.192 25.792H8.224L8.416 26.08V26.112L8.384 26.176ZM8.032 23.68C9.73867 23.168 11.392 22.5493 12.992 21.824C14.6133 21.0773 16.2027 20.2773 17.76 19.424L17.92 19.456L18.08 19.424L18.048 19.296L18.144 19.168L18.304 19.296L18.688 19.008L18.656 18.944L18.464 18.88C18.528 18.7093 18.7947 18.496 19.264 18.24C19.7333 17.9627 20.2453 17.6427 20.8 17.28C21.376 16.896 21.8773 16.4587 22.304 15.968C22.7307 15.456 22.944 14.8693 22.944 14.208C22.944 13.4827 22.7413 12.8853 22.336 12.416C21.9307 11.9253 21.408 11.5307 20.768 11.232C20.128 10.9333 19.424 10.7093 18.656 10.56C17.9093 10.4107 17.184 10.304 16.48 10.24C15.776 10.176 15.168 10.144 14.656 10.144C14.4427 10.3573 14.2827 10.5813 14.176 10.816C14.0907 11.0293 13.9733 11.2107 13.824 11.36C13.6747 11.5093 13.4187 11.584 13.056 11.584L12.8 11.808V12.128C12.48 12.2773 12.2453 12.5653 12.096 12.992C11.9467 13.3973 11.7653 13.7387 11.552 14.016L11.488 14.272L11.584 14.368L10.976 15.392L10.912 15.648L10.784 15.552C10.784 15.68 10.6987 15.9467 10.528 16.352C10.3573 16.736 10.1547 17.1733 9.92 17.664C9.68533 18.1333 9.472 18.592 9.28 19.04C9.10933 19.488 9.00267 19.8293 8.96 20.064C8.81067 20.2133 8.672 20.544 8.544 21.056C8.416 21.5467 8.30933 22.048 8.224 22.56C8.13867 23.072 8.07467 23.4453 8.032 23.68ZM13.536 22.944C13.7067 22.88 13.8667 22.7733 14.016 22.624L13.888 22.56C13.8027 22.5813 13.7173 22.624 13.632 22.688C13.568 22.7307 13.4933 22.7733 13.408 22.816L13.536 22.944ZM27.4588 23.68C27.1388 23.68 26.8934 23.552 26.7228 23.296L25.9868 22.944C25.9014 22.752 25.8588 22.5173 25.8588 22.24C25.8588 21.792 25.9654 21.312 26.1788 20.8C26.4134 20.2667 26.6374 19.8187 26.8508 19.456C26.7014 19.3707 26.5734 19.264 26.4668 19.136C26.3601 19.008 26.2534 18.88 26.1468 18.752L26.0508 18.688C25.9654 18.7733 25.8694 18.848 25.7628 18.912C25.6561 18.976 25.5494 19.0187 25.4427 19.04C25.2508 19.232 24.9734 19.552 24.6108 20C24.2481 20.4267 23.8534 20.8747 23.4268 21.344C23.0001 21.792 22.5841 22.1867 22.1788 22.528C21.7948 22.8693 21.4854 23.04 21.2508 23.04L21.2188 22.976C21.2401 22.848 21.3361 22.7093 21.5068 22.56C21.6988 22.3893 21.8374 22.2613 21.9228 22.176C21.9654 22.0053 22.0721 21.856 22.2428 21.728C22.4134 21.6 22.5734 21.504 22.7228 21.44H22.7548L22.9468 21.152L23.1068 21.056L23.0748 21.024L23.2988 20.864C23.3414 20.7573 23.4054 20.6613 23.4908 20.576C23.5761 20.4907 23.6508 20.4053 23.7148 20.32V20.256C24.1841 19.8933 24.6108 19.4987 24.9948 19.072C25.4001 18.624 25.8161 18.1867 26.2428 17.76L26.2748 17.728L26.2428 17.536C26.2428 17.3013 26.2961 17.0453 26.4028 16.768C26.5308 16.4693 26.6694 16.2453 26.8188 16.096C26.9681 15.8827 27.1494 15.6587 27.3628 15.424C27.5974 15.168 27.8534 15.04 28.1308 15.04C28.3441 15.04 28.4721 15.1467 28.5148 15.36C28.5574 15.552 28.5788 15.7227 28.5788 15.872C28.5788 16.4053 28.4401 16.8213 28.1628 17.12C27.8854 17.3973 27.5974 17.6107 27.2988 17.76C27.0214 17.9093 26.8828 18.0693 26.8828 18.24L27.3948 18.464L27.5868 18.304L27.6188 18.336H27.6828C27.8108 18.272 27.9388 18.2187 28.0668 18.176C28.1948 18.112 28.3334 18.08 28.4828 18.08C28.6108 18.08 28.7388 18.1227 28.8668 18.208C28.9948 18.272 29.1014 18.336 29.1868 18.4L29.2188 18.688C29.2401 18.88 29.1548 19.0933 28.9628 19.328C28.7921 19.5413 28.5788 19.7973 28.3228 20.096C28.0668 20.3733 27.8428 20.7147 27.6508 21.12C27.4588 21.504 27.3628 21.952 27.3628 22.464C27.3628 22.592 27.3841 22.7307 27.4268 22.88C27.4908 23.008 27.6081 23.072 27.7788 23.072C28.0348 23.072 28.3228 22.976 28.6428 22.784C28.9628 22.592 29.2828 22.3787 29.6028 22.144C29.9228 21.888 30.1894 21.696 30.4028 21.568L30.5308 21.728C30.5308 21.8773 30.4028 22.0587 30.1468 22.272C29.8908 22.4853 29.5814 22.6987 29.2188 22.912C28.8561 23.1253 28.5041 23.3067 28.1628 23.456C27.8428 23.6053 27.6081 23.68 27.4588 23.68Z" fill="#2A79E2"/>
<path d="M31.0938 32V29.7852L39.9258 16.25H31.9141V13.1465H44.4922V15.375L35.6465 28.9102H44.5469V32H31.0938ZM51.1367 32.3418C49.8698 32.3418 48.8444 31.9499 48.0605 31.166C47.2858 30.373 46.8984 29.3613 46.8984 28.1309C46.8984 26.6178 47.5501 25.4421 48.8535 24.6035C50.166 23.765 52.2624 23.1908 55.1426 22.8809C55.1152 22.179 54.9193 21.5866 54.5547 21.1035C54.1901 20.6113 53.5612 20.3652 52.668 20.3652C52.0117 20.3652 51.36 20.4883 50.7129 20.7344C50.0658 20.9805 49.4141 21.2904 48.7578 21.6641L47.4453 19.2988C48.2656 18.7702 49.1771 18.3281 50.1797 17.9727C51.1823 17.6081 52.2487 17.4258 53.3789 17.4258C55.1654 17.4258 56.5189 17.9544 57.4395 19.0117C58.36 20.069 58.8203 21.6322 58.8203 23.7012V32H55.7988L55.5391 30.4824H55.4434C54.8145 31.0202 54.1445 31.4668 53.4336 31.8223C52.7227 32.1686 51.957 32.3418 51.1367 32.3418ZM52.3398 29.4707C52.8685 29.4707 53.347 29.3522 53.7754 29.1152C54.2129 28.8691 54.6686 28.5228 55.1426 28.0762V25.1367C53.3652 25.3737 52.1348 25.7246 51.4512 26.1895C50.7676 26.6452 50.4258 27.1921 50.4258 27.8301C50.4258 28.4043 50.6035 28.8236 50.959 29.0879C51.3145 29.3431 51.7747 29.4707 52.3398 29.4707ZM62.6348 32V17.7676H65.6426L65.9297 20.2832H66.0117C66.5221 19.3535 67.1328 18.6471 67.8438 18.1641C68.5638 17.6719 69.3021 17.4258 70.0586 17.4258C70.4323 17.4258 70.7467 17.4531 71.002 17.5078C71.2572 17.5534 71.4941 17.6217 71.7129 17.7129L70.9746 20.8438C70.7376 20.7799 70.5189 20.7344 70.3184 20.707C70.127 20.6797 69.8809 20.666 69.5801 20.666C69.0241 20.666 68.4408 20.8757 67.8301 21.2949C67.2285 21.7142 66.7272 22.4434 66.3262 23.4824V32H62.6348ZM73.6816 32V17.7676H76.6895L76.9766 20.2832H77.0586C77.569 19.3535 78.1797 18.6471 78.8906 18.1641C79.6107 17.6719 80.349 17.4258 81.1055 17.4258C81.4792 17.4258 81.7936 17.4531 82.0488 17.5078C82.304 17.5534 82.541 17.6217 82.7598 17.7129L82.0215 20.8438C81.7845 20.7799 81.5658 20.7344 81.3652 20.707C81.1738 20.6797 80.9277 20.666 80.627 20.666C80.071 20.666 79.4876 20.8757 78.877 21.2949C78.2754 21.7142 77.7741 22.4434 77.373 23.4824V32H73.6816ZM90.6484 32.3418C89.4635 32.3418 88.3516 32.0501 87.3125 31.4668C86.2734 30.8835 85.4303 30.0358 84.7832 28.9238C84.1452 27.8118 83.8262 26.4674 83.8262 24.8906C83.8262 23.3229 84.1452 21.9831 84.7832 20.8711C85.4303 19.75 86.2734 18.8978 87.3125 18.3145C88.3516 17.722 89.4635 17.4258 90.6484 17.4258C91.8516 17.4258 92.9727 17.722 94.0117 18.3145C95.0508 18.8978 95.8893 19.75 96.5273 20.8711C97.1654 21.9831 97.4844 23.3229 97.4844 24.8906C97.4844 26.4674 97.1654 27.8118 96.5273 28.9238C95.8893 30.0358 95.0508 30.8835 94.0117 31.4668C92.9727 32.0501 91.8516 32.3418 90.6484 32.3418ZM90.6484 29.375C91.6328 29.375 92.3893 28.9694 92.918 28.1582C93.4557 27.3379 93.7246 26.2487 93.7246 24.8906C93.7246 23.5417 93.4557 22.4616 92.918 21.6504C92.3893 20.8301 91.6328 20.4199 90.6484 20.4199C89.6732 20.4199 88.9212 20.8301 88.3926 21.6504C87.8639 22.4616 87.5996 23.5417 87.5996 24.8906C87.5996 26.2487 87.8639 27.3379 88.3926 28.1582C88.9212 28.9694 89.6732 29.375 90.6484 29.375ZM104.881 32.3418C103.35 32.3418 102.238 31.8451 101.545 30.8516C100.852 29.849 100.506 28.4544 100.506 26.668V17.7676H104.17V26.2031C104.17 27.3151 104.329 28.0944 104.648 28.541C104.977 28.9785 105.501 29.1973 106.221 29.1973C106.795 29.1973 107.296 29.056 107.725 28.7734C108.162 28.4909 108.632 28.0306 109.133 27.3926V17.7676H112.797V32H109.789L109.529 29.9629H109.42C108.809 30.6829 108.144 31.2617 107.424 31.6992C106.704 32.1276 105.856 32.3418 104.881 32.3418ZM116.83 32V11.6836H120.467V23.9336H120.576L125.471 17.7676H129.518L124.623 23.6328L129.969 32H125.977L122.518 26.0801L120.467 28.3906V32H116.83Z" fill="#13195C"/>
</svg>
