<svg width="74" height="86" viewBox="0 0 74 86" fill="none" xmlns="http://www.w3.org/2000/svg">
<path d="M12.9375 31.9141V62.9375H25.4844C32.3938 62.9375 38.0312 62.9031 38.0312 62.8516C38.0312 62.8 37.6531 62.2844 37.2063 61.6828C35.1438 59.0359 33.7859 55.9422 33.1328 52.4703C32.7891 50.6141 32.7891 46.9359 33.1328 44.9594C34.7484 35.7469 42.3625 28.5281 51.6781 27.3594C54.8063 26.9641 59.2578 27.4625 61.6813 28.4766C62.025 28.6141 62.3688 28.7344 62.4547 28.7344C62.5406 28.7344 62.6094 22.6844 62.6094 14.8125V0.890625H37.7734H12.9375V31.9141ZM46.0578 11.4094C46.8141 12.1141 46.4359 13.4375 45.3875 13.6953C45.1641 13.7469 39.3891 13.7641 32.5656 13.7469L20.1219 13.6953L19.7094 13.2141C19.1766 12.5953 19.1766 11.9937 19.7266 11.4609L20.1391 11.0312H32.8922H45.6625L46.0578 11.4094ZM55.2016 11.3234C55.7859 11.8219 55.8375 12.5953 55.3391 13.1969L54.9094 13.6953L52.4859 13.7469L50.0625 13.8156L49.5469 13.3C48.9109 12.6641 48.8766 12.0281 49.4609 11.4609C49.8563 11.0484 49.9594 11.0312 52.3484 11.0312C54.4625 11.0312 54.8922 11.0828 55.2016 11.3234ZM46.1094 18.8C46.5563 19.2812 46.5563 20.2094 46.1266 20.6391C45.9375 20.8281 45.525 21.0344 45.2156 21.0859C44.9062 21.1375 39.1313 21.1719 32.3938 21.1375L20.1219 21.0859L19.7094 20.6047C19.2109 20.0203 19.1766 19.4703 19.6578 18.8687L20.0016 18.4219H32.875H45.7484L46.1094 18.8ZM55.3047 18.7656C55.7516 19.2641 55.7344 20.2266 55.2531 20.7078C54.8922 21.0687 54.7203 21.0859 52.3656 21.0859H49.8563L49.4438 20.6047C48.9453 20.0203 48.9109 19.4703 49.3922 18.8687L49.7359 18.4219H52.3656C54.7891 18.4219 55.0125 18.4562 55.3047 18.7656Z" fill="#30465C"/>
<path d="M0.90625 41.8828V72.9062H22.6484H44.3906V70.3281V67.7672L43.8406 67.475C43.5312 67.3203 42.7922 66.8562 42.1906 66.4437L41.1078 65.6875H26.7391H12.3875L11.7 65.3094C11.3391 65.1031 10.8578 64.6562 10.6516 64.3125L10.2734 63.7109L10.2219 37.2766L10.1875 10.8594H5.54688H0.90625V41.8828Z" fill="#30465C"/>
<path d="M51.5406 30.1094C47.1922 30.7969 42.9641 33.1515 40.0937 36.4859C38.2203 38.6687 37.0172 40.989 36.1062 44.1172C35.7625 45.3375 35.7109 45.8703 35.7109 48.6719C35.7109 52.1609 35.9344 53.3641 37.0172 55.9937C39.1484 61.1156 43.9609 65.3266 49.375 66.8047C51.4031 67.3719 55.15 67.5781 57.2297 67.2344C66.7344 65.7219 73.5922 57.2312 73.0422 47.675C72.5609 39.2703 66.5797 32.2234 58.3641 30.35C56.9375 30.0406 52.9328 29.9031 51.5406 30.1094ZM55.5625 43.0344L56.6625 46.4375L60.4437 46.4719L64.225 46.5234L61.1828 48.7234C59.5156 49.9437 58.1406 50.9406 58.1406 50.9578C58.1406 50.975 58.6391 52.5391 59.2578 54.4297C59.8594 56.3031 60.3234 57.8844 60.2891 57.9187C60.2547 57.9531 58.9312 57.0594 57.3672 55.9078C55.8031 54.7734 54.4453 53.8281 54.3422 53.8281C54.1875 53.8281 50.0625 56.7328 48.3953 57.9875C48.1719 58.1594 48.55 56.8359 49.7875 53.2094L50.5437 50.9406L48.7906 49.6859C47.8453 48.9984 46.4703 48.0016 45.7656 47.4687L44.4766 46.5234L48.2578 46.4375L52.0219 46.3515L53.1391 42.8625C53.7578 40.9547 54.3078 39.4422 54.3594 39.5109C54.4281 39.5969 54.9609 41.1781 55.5625 43.0344Z" fill="#30465C"/>
<path d="M47.1406 77.1344C47.1406 83.4765 47.1922 85.1094 47.3641 85.0062C47.4672 84.9375 49.0141 83.8547 50.7844 82.5828C52.5547 81.3281 54.1016 80.2625 54.2219 80.2109C54.3422 80.1765 55.9922 81.2422 57.8828 82.6L61.3203 85.0578L61.3719 77.1515C61.3891 72.8031 61.3891 69.2109 61.3547 69.1937C61.3203 69.1594 60.5297 69.3312 59.5844 69.589C58.0031 70.0187 57.625 70.0531 54.3594 70.0531C51.0594 70.0531 50.7328 70.0187 49.1172 69.589C48.1719 69.3312 47.3469 69.125 47.2781 69.125C47.1922 69.125 47.1406 72.7344 47.1406 77.1344Z" fill="#30465C"/>
</svg>
