<svg width="175" height="40" viewBox="0 0 175 40" fill="none" xmlns="http://www.w3.org/2000/svg">
<g clip-path="url(#clip0_68_19)">
<path d="M37.6 20.4166C37.6 19.1166 37.4833 17.8666 37.2667 16.6666H20V23.7666H29.8667C29.4333 26.05 28.1333 27.9833 26.1833 29.2833V33.9H32.1333C35.6 30.7 37.6 26 37.6 20.4166Z" fill="#4285F4"/>
<path d="M20 38.3333C24.95 38.3333 29.1 36.7 32.1333 33.9L26.1833 29.2833C24.55 30.3833 22.4666 31.05 20 31.05C15.2333 31.05 11.1833 27.8333 9.7333 23.5H3.6333V28.2333C6.64997 34.2167 12.8333 38.3333 20 38.3333Z" fill="#34A853"/>
<path d="M9.73329 23.4833C9.36663 22.3833 9.14996 21.2167 9.14996 20C9.14996 18.7833 9.36663 17.6167 9.73329 16.5167V11.7833H3.63329C2.38329 14.25 1.66663 17.0333 1.66663 20C1.66663 22.9667 2.38329 25.75 3.63329 28.2167L8.38329 24.5167L9.73329 23.4833Z" fill="#FBBC05"/>
<path d="M20 8.96663C22.7 8.96663 25.1 9.89996 27.0166 11.7L32.2666 6.44996C29.0833 3.48329 24.95 1.66663 20 1.66663C12.8333 1.66663 6.64997 5.78329 3.6333 11.7833L9.7333 16.5166C11.1833 12.1833 15.2333 8.96663 20 8.96663Z" fill="#EA4335"/>
<path d="M56.2089 17.6049C56.9443 16.1248 59.0557 16.1248 59.7911 17.6049L61.3711 20.7848C61.6623 21.3709 62.2219 21.7775 62.8693 21.8733L66.3818 22.3933C68.0167 22.6353 68.6692 24.6434 67.4888 25.8002L64.9527 28.2855C64.4853 28.7436 64.2715 29.4014 64.3804 30.0467L64.9713 33.548C65.2464 35.1777 63.5382 36.4188 62.0733 35.6536L58.926 34.0097C58.3458 33.7066 57.6542 33.7066 57.074 34.0097L53.9267 35.6536C52.4618 36.4188 50.7536 35.1777 51.0287 33.548L51.6196 30.0467C51.7285 29.4014 51.5147 28.7436 51.0473 28.2855L48.5112 25.8002C47.3308 24.6434 47.9833 22.6353 49.6182 22.3933L53.1307 21.8733C53.7782 21.7775 54.3377 21.3709 54.6289 20.7848L56.2089 17.6049Z" fill="#FEA500"/>
<path d="M82.2089 17.6049C82.9443 16.1248 85.0557 16.1248 85.7911 17.6049L87.3711 20.7848C87.6623 21.3709 88.2219 21.7775 88.8693 21.8733L92.3818 22.3933C94.0167 22.6353 94.6692 24.6434 93.4888 25.8002L90.9527 28.2855C90.4853 28.7436 90.2715 29.4014 90.3804 30.0467L90.9713 33.548C91.2464 35.1777 89.5382 36.4188 88.0733 35.6536L84.926 34.0097C84.3458 33.7066 83.6542 33.7066 83.074 34.0097L79.9267 35.6536C78.4618 36.4188 76.7536 35.1777 77.0287 33.548L77.6196 30.0467C77.7285 29.4014 77.5147 28.7436 77.0473 28.2855L74.5112 25.8002C73.3308 24.6434 73.9833 22.6353 75.6182 22.3933L79.1307 21.8733C79.7782 21.7775 80.3377 21.3709 80.6289 20.7848L82.2089 17.6049Z" fill="#FEA500"/>
<path d="M108.209 17.6049C108.944 16.1248 111.056 16.1248 111.791 17.6049L113.371 20.7848C113.662 21.3709 114.222 21.7775 114.869 21.8733L118.382 22.3933C120.017 22.6353 120.669 24.6434 119.489 25.8002L116.953 28.2855C116.485 28.7436 116.272 29.4014 116.38 30.0467L116.971 33.548C117.246 35.1777 115.538 36.4188 114.073 35.6536L110.926 34.0097C110.346 33.7066 109.654 33.7066 109.074 34.0097L105.927 35.6536C104.462 36.4188 102.754 35.1777 103.029 33.548L103.62 30.0467C103.728 29.4014 103.515 28.7436 103.047 28.2855L100.511 25.8002C99.3308 24.6434 99.9833 22.6353 101.618 22.3933L105.131 21.8733C105.778 21.7775 106.338 21.3709 106.629 20.7848L108.209 17.6049Z" fill="#FEA500"/>
<path d="M134.209 17.6049C134.944 16.1248 137.056 16.1248 137.791 17.6049L139.371 20.7848C139.662 21.3709 140.222 21.7775 140.869 21.8733L144.382 22.3933C146.017 22.6353 146.669 24.6434 145.489 25.8002L142.953 28.2855C142.485 28.7436 142.272 29.4014 142.38 30.0467L142.971 33.548C143.246 35.1777 141.538 36.4188 140.073 35.6536L136.926 34.0097C136.346 33.7066 135.654 33.7066 135.074 34.0097L131.927 35.6536C130.462 36.4188 128.754 35.1777 129.029 33.548L129.62 30.0467C129.728 29.4014 129.515 28.7436 129.047 28.2855L126.511 25.8002C125.331 24.6434 125.983 22.6353 127.618 22.3933L131.131 21.8733C131.778 21.7775 132.338 21.3709 132.629 20.7848L134.209 17.6049Z" fill="#FEA500"/>
<path d="M160.209 17.6049C160.944 16.1248 163.056 16.1248 163.791 17.6049L165.371 20.7848C165.662 21.3709 166.222 21.7775 166.869 21.8733L170.382 22.3933C172.017 22.6353 172.669 24.6434 171.489 25.8002L168.953 28.2855C168.485 28.7436 168.272 29.4014 168.38 30.0467L168.971 33.548C169.246 35.1777 167.538 36.4188 166.073 35.6536L162.926 34.0097C162.346 33.7066 161.654 33.7066 161.074 34.0097L157.927 35.6536C156.462 36.4188 154.754 35.1777 155.029 33.548L155.62 30.0467C155.728 29.4014 155.515 28.7436 155.047 28.2855L152.511 25.8002C151.331 24.6434 151.983 22.6353 153.618 22.3933L157.131 21.8733C157.778 21.7775 158.338 21.3709 158.629 20.7848L160.209 17.6049Z" fill="#FEA500"/>
</g>
<defs>
<clipPath id="clip0_68_19">
<rect width="175" height="40" fill="white"/>
</clipPath>
</defs>
</svg>
