<svg width="151" height="35" viewBox="0 0 151 35" fill="none" xmlns="http://www.w3.org/2000/svg">
<path d="M6.35938 34C5.28646 34 4.46875 33.8646 3.90625 33.5938C3.35417 33.3229 2.97917 32.8802 2.78125 32.2656C2.59375 31.651 2.5 30.8333 2.5 29.8125V15.7812C2.5 14.7396 2.59375 13.9167 2.78125 13.3125C2.97917 12.6979 3.35417 12.2604 3.90625 12C4.46875 11.7292 5.28646 11.5938 6.35938 11.5938H11.1562C13.3958 11.5938 15.3542 11.9271 17.0312 12.5938C18.7188 13.2604 20.0312 14.3906 20.9688 15.9844C21.9062 17.5677 22.375 19.7448 22.375 22.5156C22.375 25.2865 21.9062 27.5156 20.9688 29.2031C20.0312 30.8802 18.7188 32.099 17.0312 32.8594C15.3542 33.6198 13.3958 34 11.1562 34H6.35938ZM9.32812 15.7031C8.64062 15.7031 8.17188 15.849 7.92188 16.1406C7.67188 16.4323 7.54688 16.9323 7.54688 17.6406V27.9531C7.54688 28.651 7.67188 29.151 7.92188 29.4531C8.17188 29.7552 8.64062 29.9062 9.32812 29.9062H10.0469C12.276 29.9062 14 29.3594 15.2188 28.2656C16.4479 27.1719 17.0625 25.276 17.0625 22.5781C17.0625 20.776 16.7812 19.3802 16.2188 18.3906C15.6667 17.3906 14.8646 16.6927 13.8125 16.2969C12.7604 15.901 11.4948 15.7031 10.0156 15.7031H9.32812ZM30.8281 20.9688H30.8906C31.6719 18.8021 33.0781 17.7188 35.1094 17.7188C35.3698 17.7188 35.5833 17.7344 35.75 17.7656C35.9167 17.7865 36.0312 17.8073 36.0938 17.8281C36.25 17.8802 36.3281 18 36.3281 18.1875V21.9531C36.3281 22.276 36.1406 22.3646 35.7656 22.2188C35.6406 22.1667 35.4583 22.1146 35.2188 22.0625C34.9896 22 34.6667 21.9688 34.25 21.9688C33.1771 21.9688 32.3385 22.3646 31.7344 23.1562C31.1302 23.9375 30.8281 25.0052 30.8281 26.3594V33.1719C30.8281 33.4844 30.7604 33.7031 30.625 33.8281C30.5 33.9427 30.2812 34 29.9688 34H26.75C26.4375 34 26.2135 33.9427 26.0781 33.8281C25.9531 33.7031 25.8906 33.4844 25.8906 33.1719V20.0781C25.8906 19.8281 25.9427 19.6354 26.0469 19.5C26.2656 19.2083 26.526 18.9115 26.8281 18.6094C27.1406 18.3073 27.5208 17.9844 27.9688 17.6406C28.0521 17.5781 28.1354 17.5365 28.2188 17.5156C28.3021 17.4948 28.375 17.4844 28.4375 17.4844C28.5833 17.4844 28.7292 17.5365 28.875 17.6406C29.7396 18.3177 30.3438 18.8958 30.6875 19.375C30.7812 19.5 30.8281 19.6458 30.8281 19.8125V20.9688Z" fill="#2A79E2"/>
<path d="M39.0938 34V31.7852L47.9258 18.25H39.9141V15.1465H52.4922V17.375L43.6465 30.9102H52.5469V34H39.0938ZM59.1367 34.3418C57.8698 34.3418 56.8444 33.9499 56.0605 33.166C55.2858 32.373 54.8984 31.3613 54.8984 30.1309C54.8984 28.6178 55.5501 27.4421 56.8535 26.6035C58.166 25.765 60.2624 25.1908 63.1426 24.8809C63.1152 24.179 62.9193 23.5866 62.5547 23.1035C62.1901 22.6113 61.5612 22.3652 60.668 22.3652C60.0117 22.3652 59.36 22.4883 58.7129 22.7344C58.0658 22.9805 57.4141 23.2904 56.7578 23.6641L55.4453 21.2988C56.2656 20.7702 57.1771 20.3281 58.1797 19.9727C59.1823 19.6081 60.2487 19.4258 61.3789 19.4258C63.1654 19.4258 64.5189 19.9544 65.4395 21.0117C66.36 22.069 66.8203 23.6322 66.8203 25.7012V34H63.7988L63.5391 32.4824H63.4434C62.8145 33.0202 62.1445 33.4668 61.4336 33.8223C60.7227 34.1686 59.957 34.3418 59.1367 34.3418ZM60.3398 31.4707C60.8685 31.4707 61.347 31.3522 61.7754 31.1152C62.2129 30.8691 62.6686 30.5228 63.1426 30.0762V27.1367C61.3652 27.3737 60.1348 27.7246 59.4512 28.1895C58.7676 28.6452 58.4258 29.1921 58.4258 29.8301C58.4258 30.4043 58.6035 30.8236 58.959 31.0879C59.3145 31.3431 59.7747 31.4707 60.3398 31.4707ZM70.6348 34V19.7676H73.6426L73.9297 22.2832H74.0117C74.5221 21.3535 75.1328 20.6471 75.8438 20.1641C76.5638 19.6719 77.3021 19.4258 78.0586 19.4258C78.4323 19.4258 78.7467 19.4531 79.002 19.5078C79.2572 19.5534 79.4941 19.6217 79.7129 19.7129L78.9746 22.8438C78.7376 22.7799 78.5189 22.7344 78.3184 22.707C78.127 22.6797 77.8809 22.666 77.5801 22.666C77.0241 22.666 76.4408 22.8757 75.8301 23.2949C75.2285 23.7142 74.7272 24.4434 74.3262 25.4824V34H70.6348ZM81.6816 34V19.7676H84.6895L84.9766 22.2832H85.0586C85.569 21.3535 86.1797 20.6471 86.8906 20.1641C87.6107 19.6719 88.349 19.4258 89.1055 19.4258C89.4792 19.4258 89.7936 19.4531 90.0488 19.5078C90.304 19.5534 90.541 19.6217 90.7598 19.7129L90.0215 22.8438C89.7845 22.7799 89.5658 22.7344 89.3652 22.707C89.1738 22.6797 88.9277 22.666 88.627 22.666C88.071 22.666 87.4876 22.8757 86.877 23.2949C86.2754 23.7142 85.7741 24.4434 85.373 25.4824V34H81.6816ZM98.6484 34.3418C97.4635 34.3418 96.3516 34.0501 95.3125 33.4668C94.2734 32.8835 93.4303 32.0358 92.7832 30.9238C92.1452 29.8118 91.8262 28.4674 91.8262 26.8906C91.8262 25.3229 92.1452 23.9831 92.7832 22.8711C93.4303 21.75 94.2734 20.8978 95.3125 20.3145C96.3516 19.722 97.4635 19.4258 98.6484 19.4258C99.8516 19.4258 100.973 19.722 102.012 20.3145C103.051 20.8978 103.889 21.75 104.527 22.8711C105.165 23.9831 105.484 25.3229 105.484 26.8906C105.484 28.4674 105.165 29.8118 104.527 30.9238C103.889 32.0358 103.051 32.8835 102.012 33.4668C100.973 34.0501 99.8516 34.3418 98.6484 34.3418ZM98.6484 31.375C99.6328 31.375 100.389 30.9694 100.918 30.1582C101.456 29.3379 101.725 28.2487 101.725 26.8906C101.725 25.5417 101.456 24.4616 100.918 23.6504C100.389 22.8301 99.6328 22.4199 98.6484 22.4199C97.6732 22.4199 96.9212 22.8301 96.3926 23.6504C95.8639 24.4616 95.5996 25.5417 95.5996 26.8906C95.5996 28.2487 95.8639 29.3379 96.3926 30.1582C96.9212 30.9694 97.6732 31.375 98.6484 31.375ZM112.881 34.3418C111.35 34.3418 110.238 33.8451 109.545 32.8516C108.852 31.849 108.506 30.4544 108.506 28.668V19.7676H112.17V28.2031C112.17 29.3151 112.329 30.0944 112.648 30.541C112.977 30.9785 113.501 31.1973 114.221 31.1973C114.795 31.1973 115.296 31.056 115.725 30.7734C116.162 30.4909 116.632 30.0306 117.133 29.3926V19.7676H120.797V34H117.789L117.529 31.9629H117.42C116.809 32.6829 116.144 33.2617 115.424 33.6992C114.704 34.1276 113.856 34.3418 112.881 34.3418ZM124.83 34V13.6836H128.467V25.9336H128.576L133.471 19.7676H137.518L132.623 25.6328L137.969 34H133.977L130.518 28.0801L128.467 30.3906V34H124.83Z" fill="#13195C"/>
</svg>
