<svg width="169" height="40" viewBox="0 0 169 40" fill="none" xmlns="http://www.w3.org/2000/svg">
<path d="M9.216 33.872C7.08 33.872 5.184 33.608 3.528 33.08C1.872 32.576 0.756003 31.76 0.180003 30.632C0.0600034 30.392 3.41609e-06 30.236 3.41609e-06 30.164C3.41609e-06 30.116 0.0240034 30.092 0.0720034 30.092C0.168003 30.092 0.336003 30.176 0.576003 30.344C1.488 30.968 2.652 31.376 4.068 31.568C5.484 31.76 6.9 31.856 8.316 31.856C9.684 31.856 11.16 31.736 12.744 31.496C14.352 31.256 15.96 30.908 17.568 30.452C19.2 29.972 20.784 29.372 22.32 28.652C23.856 27.932 25.26 27.092 26.532 26.132C28.524 24.62 29.976 23.156 30.888 21.74C31.8 20.324 32.256 18.992 32.256 17.744C32.256 16.376 31.752 15.164 30.744 14.108C29.736 13.052 28.332 12.236 26.532 11.66C24.756 11.06 22.668 10.76 20.268 10.76C19.404 10.76 18.516 10.796 17.604 10.868C16.068 11.012 14.532 11.276 12.996 11.66C11.484 12.02 10.032 12.476 8.64 13.028C7.272 13.58 6.048 14.18 4.968 14.828C3.888 15.476 3.036 16.148 2.412 16.844C1.812 17.516 1.512 18.176 1.512 18.824C1.512 19.232 1.656 19.64 1.944 20.048C2.016 20.12 2.052 20.216 2.052 20.336C2.052 20.432 2.016 20.504 1.944 20.552C1.872 20.576 1.776 20.54 1.656 20.444C1.44 20.204 1.236 19.832 1.044 19.328C0.852003 18.8 0.756003 18.212 0.756003 17.564C0.756003 16.916 0.900003 16.244 1.188 15.548C1.5 14.828 2.04 14.168 2.808 13.568C3.72 12.848 4.848 12.176 6.192 11.552C7.536 10.904 9 10.34 10.584 9.86C12.192 9.38 13.836 9.008 15.516 8.744C17.22 8.48 18.9 8.348 20.556 8.348C23.412 8.348 25.752 8.78 27.576 9.644C29.424 10.484 30.792 11.612 31.68 13.028C32.568 14.42 33.012 15.956 33.012 17.636C33.012 19.172 32.64 20.744 31.896 22.352C31.176 23.96 30.108 25.484 28.692 26.924C27.3 28.364 25.572 29.612 23.508 30.668C22.188 31.316 20.724 31.88 19.116 32.36C17.508 32.84 15.852 33.212 14.148 33.476C12.444 33.74 10.8 33.872 9.216 33.872ZM5.58 29.012C5.412 29.012 5.328 28.844 5.328 28.508C5.328 28.172 5.508 27.62 5.868 26.852C6.252 26.084 6.756 25.196 7.38 24.188C8.004 23.18 8.688 22.124 9.432 21.02C10.2 19.892 10.968 18.8 11.736 17.744C12.504 16.664 13.224 15.692 13.896 14.828C14.568 13.94 15.132 13.244 15.588 12.74C16.068 12.212 16.368 11.948 16.488 11.948H16.812C17.076 11.948 17.208 12.008 17.208 12.128C17.208 12.248 17.112 12.404 16.92 12.596C16.104 13.484 15.24 14.492 14.328 15.62C13.44 16.748 12.552 17.936 11.664 19.184C10.776 20.408 9.936 21.62 9.144 22.82C8.376 24.02 7.704 25.136 7.128 26.168C6.552 27.2 6.132 28.064 5.868 28.76C5.796 28.928 5.7 29.012 5.58 29.012ZM35.9558 32.036C34.9238 32.036 34.2278 31.844 33.8678 31.46C33.5078 31.052 33.3278 30.608 33.3278 30.128C33.3278 29.504 33.5678 28.844 34.0478 28.148C34.3358 27.74 34.6598 27.284 35.0198 26.78C35.3798 26.252 35.7158 25.76 36.0278 25.304C36.3398 24.848 36.5558 24.524 36.6758 24.332C36.8438 24.092 36.9398 23.936 36.9638 23.864C37.0118 23.768 37.0358 23.672 37.0358 23.576C37.0358 23.432 36.9398 23.3 36.7478 23.18C36.5798 23.036 36.2918 22.964 35.8838 22.964C35.7638 22.964 35.6558 22.976 35.5598 23C35.4878 23 35.4038 23 35.3078 23C35.1158 23 35.0078 22.988 34.9838 22.964L34.8758 23.108C34.2038 23.996 33.4838 24.872 32.7158 25.736C31.9478 26.576 31.1078 27.356 30.1958 28.076C30.0998 28.148 30.0278 28.184 29.9798 28.184C29.8838 28.184 29.8358 28.136 29.8358 28.04C29.8358 27.848 29.9798 27.632 30.2678 27.392C31.0118 26.768 31.7438 26.072 32.4638 25.304C33.1838 24.512 33.8318 23.684 34.4078 22.82C34.1918 22.676 34.0838 22.388 34.0838 21.956C34.0838 21.308 34.2878 20.612 34.6958 19.868C34.9838 19.364 35.2958 18.992 35.6318 18.752C35.9918 18.488 36.3038 18.356 36.5678 18.356C37.0718 18.356 37.3238 18.656 37.3238 19.256C37.3238 19.64 37.1798 20.12 36.8918 20.696C36.7718 20.984 36.5318 21.356 36.1718 21.812C35.8358 22.244 35.4998 22.556 35.1638 22.748C35.6678 22.58 36.3038 22.472 37.0718 22.424C37.8638 22.352 38.5238 22.316 39.0518 22.316C39.3638 22.316 39.7478 22.412 40.2038 22.604C40.6598 22.772 40.8878 23.084 40.8878 23.54C40.8878 23.852 40.7438 24.188 40.4558 24.548C40.3838 24.644 40.1918 24.872 39.8798 25.232C39.5678 25.592 39.2198 26.024 38.8358 26.528C38.4758 27.032 38.1398 27.536 37.8278 28.04C37.5158 28.496 37.2638 28.916 37.0718 29.3C36.9038 29.684 36.8198 30.008 36.8198 30.272C36.8198 30.656 37.0358 30.848 37.4678 30.848C37.9718 30.848 38.6438 30.608 39.4838 30.128C40.3238 29.648 41.2238 29.036 42.1838 28.292C43.1678 27.524 44.0678 26.732 44.8838 25.916C44.9798 25.82 45.0638 25.772 45.1358 25.772C45.2318 25.772 45.2798 25.832 45.2798 25.952C45.2798 26.096 45.2198 26.228 45.0998 26.348C44.2598 27.188 43.3238 28.052 42.2918 28.94C41.2838 29.804 40.2278 30.536 39.1238 31.136C38.0438 31.736 36.9878 32.036 35.9558 32.036Z" fill="white"/>
<path d="M47.466 33V30.4688L57.5598 15H48.4035V11.4531H62.7785V14L52.6691 29.4688H62.841V33H47.466ZM70.3723 33.3906C68.9243 33.3906 67.7525 32.9427 66.8566 32.0469C65.9712 31.1406 65.5285 29.9844 65.5285 28.5781C65.5285 26.849 66.2733 25.5052 67.7629 24.5469C69.2629 23.5885 71.6587 22.9323 74.9504 22.5781C74.9191 21.776 74.6952 21.099 74.2785 20.5469C73.8618 19.9844 73.1431 19.7031 72.1223 19.7031C71.3723 19.7031 70.6275 19.8438 69.8879 20.125C69.1483 20.4062 68.4035 20.7604 67.6535 21.1875L66.1535 18.4844C67.091 17.8802 68.1327 17.375 69.2785 16.9688C70.4243 16.5521 71.6431 16.3438 72.9348 16.3438C74.9764 16.3438 76.5233 16.9479 77.5754 18.1562C78.6275 19.3646 79.1535 21.151 79.1535 23.5156V33H75.7004L75.4035 31.2656H75.2941C74.5754 31.8802 73.8098 32.3906 72.9973 32.7969C72.1848 33.1927 71.3098 33.3906 70.3723 33.3906ZM71.7473 30.1094C72.3514 30.1094 72.8983 29.974 73.3879 29.7031C73.8879 29.4219 74.4087 29.026 74.9504 28.5156V25.1562C72.9191 25.4271 71.5129 25.8281 70.7316 26.3594C69.9504 26.8802 69.5598 27.5052 69.5598 28.2344C69.5598 28.8906 69.7629 29.3698 70.1691 29.6719C70.5754 29.9635 71.1014 30.1094 71.7473 30.1094ZM83.5129 33V16.7344H86.9504L87.2785 19.6094H87.3723C87.9556 18.5469 88.6535 17.7396 89.466 17.1875C90.2889 16.625 91.1327 16.3438 91.9973 16.3438C92.4243 16.3438 92.7837 16.375 93.0754 16.4375C93.367 16.4896 93.6379 16.5677 93.8879 16.6719L93.0441 20.25C92.7733 20.1771 92.5233 20.125 92.2941 20.0938C92.0754 20.0625 91.7941 20.0469 91.4504 20.0469C90.815 20.0469 90.1483 20.2865 89.4504 20.7656C88.7629 21.2448 88.19 22.0781 87.7316 23.2656V33H83.5129ZM96.1379 33V16.7344H99.5754L99.9035 19.6094H99.9973C100.581 18.5469 101.279 17.7396 102.091 17.1875C102.914 16.625 103.758 16.3438 104.622 16.3438C105.049 16.3438 105.409 16.375 105.7 16.4375C105.992 16.4896 106.263 16.5677 106.513 16.6719L105.669 20.25C105.398 20.1771 105.148 20.125 104.919 20.0938C104.7 20.0625 104.419 20.0469 104.075 20.0469C103.44 20.0469 102.773 20.2865 102.075 20.7656C101.388 21.2448 100.815 22.0781 100.357 23.2656V33H96.1379ZM115.529 33.3906C114.174 33.3906 112.904 33.0573 111.716 32.3906C110.529 31.724 109.565 30.7552 108.825 29.4844C108.096 28.2135 107.732 26.6771 107.732 24.875C107.732 23.0833 108.096 21.5521 108.825 20.2812C109.565 19 110.529 18.026 111.716 17.3594C112.904 16.6823 114.174 16.3438 115.529 16.3438C116.904 16.3438 118.185 16.6823 119.372 17.3594C120.56 18.026 121.518 19 122.247 20.2812C122.976 21.5521 123.341 23.0833 123.341 24.875C123.341 26.6771 122.976 28.2135 122.247 29.4844C121.518 30.7552 120.56 31.724 119.372 32.3906C118.185 33.0573 116.904 33.3906 115.529 33.3906ZM115.529 30C116.654 30 117.518 29.5365 118.122 28.6094C118.737 27.6719 119.044 26.4271 119.044 24.875C119.044 23.3333 118.737 22.099 118.122 21.1719C117.518 20.2344 116.654 19.7656 115.529 19.7656C114.414 19.7656 113.555 20.2344 112.95 21.1719C112.346 22.099 112.044 23.3333 112.044 24.875C112.044 26.4271 112.346 27.6719 112.95 28.6094C113.555 29.5365 114.414 30 115.529 30ZM131.794 33.3906C130.044 33.3906 128.773 32.8229 127.982 31.6875C127.19 30.5417 126.794 28.9479 126.794 26.9062V16.7344H130.982V26.375C130.982 27.6458 131.164 28.5365 131.529 29.0469C131.904 29.5469 132.502 29.7969 133.325 29.7969C133.982 29.7969 134.555 29.6354 135.044 29.3125C135.544 28.9896 136.081 28.4635 136.654 27.7344V16.7344H140.841V33H137.404L137.107 30.6719H136.982C136.284 31.4948 135.523 32.1562 134.7 32.6562C133.877 33.1458 132.909 33.3906 131.794 33.3906ZM145.45 33V9.78125H149.607V23.7812H149.732L155.325 16.7344H159.95L154.357 23.4375L160.466 33H155.904L151.95 26.2344L149.607 28.875V33H145.45Z" fill="white"/>
</svg>
