<svg width="103" height="25" viewBox="0 0 103 25" fill="none" xmlns="http://www.w3.org/2000/svg">
<path d="M1.57031 24V6.84375H8.0625C9.8125 6.84375 11.2617 7.11328 12.4102 7.65234C13.5664 8.18359 14.4297 9.07031 15 10.3125C15.5781 11.5547 15.8672 13.2344 15.8672 15.3516C15.8672 17.3984 15.6055 19.0586 15.082 20.332C14.5664 21.5977 13.7383 22.5273 12.5977 23.1211C11.457 23.707 9.95312 24 8.08594 24H1.57031ZM4.27734 21.9375H7.32422C8.77734 21.9375 9.92969 21.75 10.7812 21.375C11.6328 21 12.2383 20.3398 12.5977 19.3945C12.9648 18.4414 13.1484 17.0977 13.1484 15.3633C13.1484 13.8398 13 12.6055 12.7031 11.6602C12.4062 10.707 11.8867 10.0117 11.1445 9.57422C10.4023 9.12891 9.36719 8.90625 8.03906 8.90625H4.27734V21.9375ZM18.6211 24V12.0117H21.2344V13.8047C21.6641 13.1172 22.168 12.6211 22.7461 12.3164C23.332 12.0117 24.0039 11.8594 24.7617 11.8594V14.168C23.9102 14.168 23.2227 14.3555 22.6992 14.7305C22.1836 15.0977 21.8086 15.5898 21.5742 16.207C21.3477 16.8164 21.2344 17.4844 21.2344 18.2109V24H18.6211Z" fill="#2A79E2"/>
<path d="M28.7812 24V22.418L35.0898 12.75H29.3672V10.5332H38.3516V12.125L32.0332 21.793H38.3906V24H28.7812ZM43.0977 24.2441C42.1927 24.2441 41.4603 23.9642 40.9004 23.4043C40.347 22.8379 40.0703 22.1152 40.0703 21.2363C40.0703 20.1556 40.5358 19.3158 41.4668 18.7168C42.4043 18.1178 43.9017 17.7077 45.959 17.4863C45.9395 16.985 45.7995 16.5618 45.5391 16.2168C45.2786 15.8652 44.8294 15.6895 44.1914 15.6895C43.7227 15.6895 43.2572 15.7773 42.7949 15.9531C42.3327 16.1289 41.8672 16.3503 41.3984 16.6172L40.4609 14.9277C41.0469 14.5501 41.6979 14.2344 42.4141 13.9805C43.1302 13.7201 43.8919 13.5898 44.6992 13.5898C45.9753 13.5898 46.9421 13.9674 47.5996 14.7227C48.2572 15.4779 48.5859 16.5944 48.5859 18.0723V24H46.4277L46.2422 22.916H46.1738C45.7246 23.3001 45.2461 23.6191 44.7383 23.873C44.2305 24.1204 43.6836 24.2441 43.0977 24.2441ZM43.957 22.1934C44.3346 22.1934 44.6764 22.1087 44.9824 21.9395C45.2949 21.7637 45.6204 21.5163 45.959 21.1973V19.0977C44.6895 19.2669 43.8105 19.5176 43.3223 19.8496C42.834 20.1751 42.5898 20.5658 42.5898 21.0215C42.5898 21.4316 42.7168 21.7311 42.9707 21.9199C43.2246 22.1022 43.5534 22.1934 43.957 22.1934ZM51.3105 24V13.834H53.459L53.6641 15.6309H53.7227C54.0872 14.9668 54.5234 14.4622 55.0312 14.1172C55.5456 13.7656 56.0729 13.5898 56.6133 13.5898C56.8802 13.5898 57.1048 13.6094 57.2871 13.6484C57.4694 13.681 57.6387 13.7298 57.7949 13.7949L57.2676 16.0312C57.0983 15.9857 56.9421 15.9531 56.7988 15.9336C56.6621 15.9141 56.4863 15.9043 56.2715 15.9043C55.8743 15.9043 55.4577 16.054 55.0215 16.3535C54.5918 16.653 54.2337 17.1738 53.9473 17.916V24H51.3105ZM59.2012 24V13.834H61.3496L61.5547 15.6309H61.6133C61.9779 14.9668 62.4141 14.4622 62.9219 14.1172C63.4362 13.7656 63.9635 13.5898 64.5039 13.5898C64.7708 13.5898 64.9954 13.6094 65.1777 13.6484C65.36 13.681 65.5293 13.7298 65.6855 13.7949L65.1582 16.0312C64.9889 15.9857 64.8327 15.9531 64.6895 15.9336C64.5527 15.9141 64.377 15.9043 64.1621 15.9043C63.765 15.9043 63.3483 16.054 62.9121 16.3535C62.4824 16.653 62.1243 17.1738 61.8379 17.916V24H59.2012ZM71.3203 24.2441C70.474 24.2441 69.6797 24.0358 68.9375 23.6191C68.1953 23.2025 67.5931 22.597 67.1309 21.8027C66.6751 21.0085 66.4473 20.0482 66.4473 18.9219C66.4473 17.8021 66.6751 16.8451 67.1309 16.0508C67.5931 15.25 68.1953 14.6413 68.9375 14.2246C69.6797 13.8014 70.474 13.5898 71.3203 13.5898C72.1797 13.5898 72.9805 13.8014 73.7227 14.2246C74.4648 14.6413 75.0638 15.25 75.5195 16.0508C75.9753 16.8451 76.2031 17.8021 76.2031 18.9219C76.2031 20.0482 75.9753 21.0085 75.5195 21.8027C75.0638 22.597 74.4648 23.2025 73.7227 23.6191C72.9805 24.0358 72.1797 24.2441 71.3203 24.2441ZM71.3203 22.125C72.0234 22.125 72.5638 21.8353 72.9414 21.2559C73.3255 20.6699 73.5176 19.8919 73.5176 18.9219C73.5176 17.9583 73.3255 17.1868 72.9414 16.6074C72.5638 16.0215 72.0234 15.7285 71.3203 15.7285C70.6237 15.7285 70.0866 16.0215 69.709 16.6074C69.3314 17.1868 69.1426 17.9583 69.1426 18.9219C69.1426 19.8919 69.3314 20.6699 69.709 21.2559C70.0866 21.8353 70.6237 22.125 71.3203 22.125ZM81.4863 24.2441C80.3926 24.2441 79.5983 23.8893 79.1035 23.1797C78.6087 22.4635 78.3613 21.4674 78.3613 20.1914V13.834H80.9785V19.8594C80.9785 20.6536 81.0924 21.2103 81.3203 21.5293C81.5547 21.8418 81.929 21.998 82.4434 21.998C82.8535 21.998 83.2116 21.8971 83.5176 21.6953C83.8301 21.4935 84.1654 21.1647 84.5234 20.709V13.834H87.1406V24H84.9922L84.8066 22.5449H84.7285C84.2923 23.0592 83.8171 23.4727 83.3027 23.7852C82.7884 24.0911 82.1829 24.2441 81.4863 24.2441ZM90.0215 24V9.48828H92.6191V18.2383H92.6973L96.1934 13.834H99.084L95.5879 18.0234L99.4062 24H96.5547L94.084 19.7715L92.6191 21.4219V24H90.0215Z" fill="#13195C"/>
</svg>
