<svg width="146" height="33" viewBox="0 0 146 33" fill="none" xmlns="http://www.w3.org/2000/svg">
<path d="M2.584 23C1.94933 23 1.36 22.932 0.816 22.796C0.272 22.6373 4.28408e-08 22.388 4.28408e-08 22.048C4.28408e-08 21.8213 0.124667 21.6173 0.374 21.436C0.646 21.2547 0.963333 21.1187 1.326 21.028C1.71133 20.9147 2.05133 20.858 2.346 20.858C3.32067 20.858 4.26133 21.0053 5.168 21.3C6.07467 21.572 7.004 21.8553 7.956 22.15C8.93067 22.422 9.97333 22.558 11.084 22.558C12.444 22.558 13.7473 22.2747 14.994 21.708C16.2407 21.1413 17.3513 20.3707 18.326 19.396C19.3007 18.4213 20.06 17.322 20.604 16.098C21.1707 14.8513 21.454 13.5593 21.454 12.222C21.454 10.794 21.2047 9.54733 20.706 8.482C20.23 7.41667 19.4593 6.58933 18.394 6C17.3513 5.41067 15.9913 5.116 14.314 5.116C13.0447 5.116 11.8093 5.37667 10.608 5.898C9.40667 6.39667 8.33 7.054 7.378 7.87C6.426 8.66333 5.66667 9.52467 5.1 10.454C4.53333 11.3833 4.25 12.256 4.25 13.072C4.25 13.5027 4.42 13.9447 4.76 14.398C5.1 14.8513 5.68933 15.078 6.528 15.078C7.32133 15.078 8.18267 14.874 9.112 14.466C10.0413 14.0353 10.9253 13.4687 11.764 12.766C12.6253 12.0407 13.362 11.236 13.974 10.352C14.586 9.44533 14.96 8.516 15.096 7.564C15.1413 7.26933 15.2093 7.13333 15.3 7.156C15.3907 7.17867 15.436 7.31467 15.436 7.564C15.436 8.53867 15.1867 9.502 14.688 10.454C14.1893 11.3833 13.532 12.222 12.716 12.97C11.9 13.718 10.9933 14.3187 9.996 14.772C9.02133 15.2253 8.03533 15.452 7.038 15.452C6.154 15.452 5.45133 15.3047 4.93 15.01C4.40867 14.7153 4.03467 14.3527 3.808 13.922C3.58133 13.4687 3.468 13.0267 3.468 12.596C3.468 11.7347 3.72867 10.8507 4.25 9.944C4.794 9.01467 5.542 8.16467 6.494 7.394C7.46867 6.62333 8.602 6 9.894 5.524C11.2087 5.048 12.6253 4.81 14.144 4.81C15.5493 4.81 16.762 5.00267 17.782 5.388C18.802 5.75067 19.6407 6.26067 20.298 6.918C20.9553 7.55267 21.4427 8.30067 21.76 9.162C22.1 10.0007 22.27 10.896 22.27 11.848C22.27 13.4347 21.964 14.908 21.352 16.268C20.7627 17.6053 19.9467 18.7727 18.904 19.77C17.8613 20.7673 16.6713 21.5493 15.334 22.116C13.9967 22.66 12.6027 22.932 11.152 22.932C10.0867 22.932 9.08933 22.8187 8.16 22.592C7.23067 22.3427 6.324 22.0933 5.44 21.844C4.57867 21.5947 3.66067 21.47 2.686 21.47C2.482 21.47 2.18733 21.4813 1.802 21.504C1.43933 21.5267 1.11067 21.5833 0.816 21.674C0.521333 21.742 0.374 21.8667 0.374 22.048C0.374 22.2067 0.51 22.3313 0.782 22.422C1.054 22.5127 1.37133 22.5693 1.734 22.592C2.09667 22.6147 2.39133 22.626 2.618 22.626C3.66067 22.626 4.658 22.4333 5.61 22.048C6.562 21.64 7.48 21.0847 8.364 20.382C9.248 19.6793 10.0867 18.886 10.88 18.002C11.696 17.0953 12.478 16.1433 13.226 15.146C14.178 13.854 15.198 12.63 16.286 11.474C17.374 10.318 18.4847 9.298 19.618 8.414C20.7513 7.50733 21.862 6.80467 22.95 6.306C24.038 5.78467 25.058 5.524 26.01 5.524C26.3047 5.524 26.418 5.58067 26.35 5.694C26.282 5.78467 26.1573 5.83 25.976 5.83C25.2053 5.83 24.378 6.09067 23.494 6.612C22.61 7.13333 21.7033 7.836 20.774 8.72C19.8673 9.604 18.9947 10.5787 18.156 11.644C17.3173 12.7093 16.558 13.786 15.878 14.874C15.3113 15.7807 14.6087 16.71 13.77 17.662C12.9313 18.614 11.9567 19.498 10.846 20.314C9.73533 21.1073 8.48867 21.7533 7.106 22.252C5.72333 22.7507 4.216 23 2.584 23ZM23.6494 18.24C23.5587 18.3307 23.4907 18.342 23.4454 18.274C23.4001 18.1833 23.3887 18.0927 23.4114 18.002C23.7967 17.6167 24.1707 17.1633 24.5334 16.642C24.9187 16.1207 25.2361 15.6333 25.4854 15.18C25.7574 14.7267 25.9161 14.4207 25.9614 14.262C26.0067 14.262 26.0747 14.228 26.1654 14.16C26.2787 14.092 26.3807 14.0693 26.4714 14.092C26.4487 14.2507 26.4147 14.398 26.3694 14.534C26.3467 14.67 26.4261 14.7947 26.6074 14.908C26.7887 15.0213 27.1627 15.1347 27.7294 15.248C28.2961 15.3613 29.1574 15.486 30.3134 15.622C30.4267 15.6447 30.5061 15.69 30.5514 15.758C30.6194 15.8033 30.5854 15.8827 30.4494 15.996C30.0187 16.336 29.5427 16.7667 29.0214 17.288C28.5001 17.8093 27.9901 18.3647 27.4914 18.954C27.0154 19.5207 26.6187 20.076 26.3014 20.62C26.0067 21.164 25.8594 21.6173 25.8594 21.98C25.8594 22.388 26.0407 22.592 26.4034 22.592C26.8567 22.592 27.3667 22.4107 27.9334 22.048C28.5227 21.6853 29.1121 21.2433 29.7014 20.722C30.2907 20.178 30.8347 19.634 31.3334 19.09C31.8547 18.5233 32.2854 18.0587 32.6254 17.696L32.8974 17.9C32.5801 18.2173 32.1721 18.6593 31.6734 19.226C31.1747 19.7927 30.6081 20.3707 29.9734 20.96C29.3614 21.5267 28.7041 22.014 28.0014 22.422C27.2987 22.8073 26.5734 23 25.8254 23C25.3947 23 25.0094 22.9093 24.6694 22.728C24.3294 22.524 24.1594 22.1727 24.1594 21.674C24.1594 21.198 24.3634 20.6993 24.7714 20.178C25.1794 19.6567 25.6894 19.1353 26.3014 18.614C26.9134 18.07 27.5481 17.56 28.2054 17.084C28.8854 16.5853 29.4861 16.132 30.0074 15.724L30.2454 16.03C30.0187 15.9393 29.6221 15.86 29.0554 15.792C28.4887 15.7013 27.8994 15.588 27.2874 15.452C26.6754 15.2933 26.1427 15.0893 25.6894 14.84C25.2587 14.5907 25.0434 14.2507 25.0434 13.82C25.0434 13.5933 25.1341 13.3213 25.3154 13.004C25.5194 12.664 25.7914 12.494 26.1314 12.494C26.4487 12.494 26.6641 12.562 26.7774 12.698C26.8907 12.8113 26.9474 12.97 26.9474 13.174C26.9474 13.31 26.8341 13.5933 26.6074 14.024C26.3807 14.432 26.0974 14.9193 25.7574 15.486C25.4174 16.03 25.0547 16.5513 24.6694 17.05C24.3067 17.5487 23.9667 17.9453 23.6494 18.24Z" fill="#2A79E2"/>
<path d="M33.4678 32V29.7852L42.2998 16.25H34.2881V13.1465H46.8662V15.375L38.0205 28.9102H46.9209V32H33.4678ZM53.5107 32.3418C52.2438 32.3418 51.2184 31.9499 50.4345 31.166C49.6598 30.373 49.2724 29.3613 49.2724 28.1309C49.2724 26.6178 49.9241 25.4421 51.2275 24.6035C52.54 23.765 54.6364 23.1908 57.5166 22.8809C57.4892 22.179 57.2933 21.5866 56.9287 21.1035C56.5641 20.6113 55.9352 20.3652 55.042 20.3652C54.3857 20.3652 53.734 20.4883 53.0869 20.7344C52.4398 20.9805 51.7881 21.2904 51.1318 21.6641L49.8193 19.2988C50.6396 18.7702 51.5511 18.3281 52.5537 17.9727C53.5563 17.6081 54.6227 17.4258 55.7529 17.4258C57.5394 17.4258 58.8929 17.9544 59.8135 19.0117C60.734 20.069 61.1943 21.6322 61.1943 23.7012V32H58.1728L57.9131 30.4824H57.8174C57.1885 31.0202 56.5185 31.4668 55.8076 31.8223C55.0967 32.1686 54.331 32.3418 53.5107 32.3418ZM54.7138 29.4707C55.2425 29.4707 55.721 29.3522 56.1494 29.1152C56.5869 28.8691 57.0426 28.5228 57.5166 28.0762V25.1367C55.7392 25.3737 54.5088 25.7246 53.8252 26.1895C53.1416 26.6452 52.7998 27.1921 52.7998 27.8301C52.7998 28.4043 52.9775 28.8236 53.333 29.0879C53.6885 29.3431 54.1487 29.4707 54.7138 29.4707ZM65.0088 32V17.7676H68.0166L68.3037 20.2832H68.3857C68.8961 19.3535 69.5068 18.6471 70.2178 18.1641C70.9378 17.6719 71.6761 17.4258 72.4326 17.4258C72.8063 17.4258 73.1207 17.4531 73.376 17.5078C73.6312 17.5534 73.8681 17.6217 74.0869 17.7129L73.3486 20.8438C73.1116 20.7799 72.8929 20.7344 72.6924 20.707C72.501 20.6797 72.2549 20.666 71.9541 20.666C71.3981 20.666 70.8148 20.8757 70.2041 21.2949C69.6025 21.7142 69.1012 22.4434 68.7002 23.4824V32H65.0088ZM76.0556 32V17.7676H79.0635L79.3506 20.2832H79.4326C79.943 19.3535 80.5537 18.6471 81.2646 18.1641C81.9847 17.6719 82.723 17.4258 83.4795 17.4258C83.8532 17.4258 84.1676 17.4531 84.4228 17.5078C84.678 17.5534 84.915 17.6217 85.1338 17.7129L84.3955 20.8438C84.1585 20.7799 83.9398 20.7344 83.7392 20.707C83.5478 20.6797 83.3017 20.666 83.001 20.666C82.445 20.666 81.8616 20.8757 81.251 21.2949C80.6494 21.7142 80.1481 22.4434 79.747 23.4824V32H76.0556ZM93.0224 32.3418C91.8375 32.3418 90.7256 32.0501 89.6865 31.4668C88.6474 30.8835 87.8043 30.0358 87.1572 28.9238C86.5192 27.8118 86.2002 26.4674 86.2002 24.8906C86.2002 23.3229 86.5192 21.9831 87.1572 20.8711C87.8043 19.75 88.6474 18.8978 89.6865 18.3145C90.7256 17.722 91.8375 17.4258 93.0224 17.4258C94.2256 17.4258 95.3467 17.722 96.3857 18.3145C97.4248 18.8978 98.2633 19.75 98.9013 20.8711C99.5394 21.9831 99.8584 23.3229 99.8584 24.8906C99.8584 26.4674 99.5394 27.8118 98.9013 28.9238C98.2633 30.0358 97.4248 30.8835 96.3857 31.4668C95.3467 32.0501 94.2256 32.3418 93.0224 32.3418ZM93.0224 29.375C94.0068 29.375 94.7633 28.9694 95.292 28.1582C95.8297 27.3379 96.0986 26.2487 96.0986 24.8906C96.0986 23.5417 95.8297 22.4616 95.292 21.6504C94.7633 20.8301 94.0068 20.4199 93.0224 20.4199C92.0472 20.4199 91.2952 20.8301 90.7666 21.6504C90.2379 22.4616 89.9736 23.5417 89.9736 24.8906C89.9736 26.2487 90.2379 27.3379 90.7666 28.1582C91.2952 28.9694 92.0472 29.375 93.0224 29.375ZM107.255 32.3418C105.724 32.3418 104.612 31.8451 103.919 30.8516C103.226 29.849 102.88 28.4544 102.88 26.668V17.7676H106.544V26.2031C106.544 27.3151 106.703 28.0944 107.022 28.541C107.351 28.9785 107.875 29.1973 108.595 29.1973C109.169 29.1973 109.67 29.056 110.099 28.7734C110.536 28.4909 111.006 28.0306 111.507 27.3926V17.7676H115.171V32H112.163L111.903 29.9629H111.794C111.183 30.6829 110.518 31.2617 109.798 31.6992C109.078 32.1276 108.23 32.3418 107.255 32.3418ZM119.204 32V11.6836H122.841V23.9336H122.95L127.845 17.7676H131.892L126.997 23.6328L132.343 32H128.351L124.892 26.0801L122.841 28.3906V32H119.204Z" fill="#13195C"/>
</svg>
